<svg width="311" height="311" viewBox="0 0 311 311" fill="none" xmlns="http://www.w3.org/2000/svg">
<rect x="1" y="1" width="309" height="309" rx="9" stroke="#FCFDF7" stroke-width="2"/>
<mask id="path-2-inside-1_135_300" fill="white">
<path fill-rule="evenodd" clip-rule="evenodd" d="M89.78 155C74.4205 146.398 65 134.783 65 122C65 95.4903 105.518 74 155.5 74C205.482 74 246 95.4903 246 122C246 134.783 236.58 146.398 221.22 155C236.58 163.602 246 175.218 246 188C246 214.51 205.482 236 155.5 236C105.518 236 65 214.51 65 188C65 175.217 74.4205 163.602 89.78 155Z"/>
</mask>
<path fill-rule="evenodd" clip-rule="evenodd" d="M89.78 155C74.4205 146.398 65 134.783 65 122C65 95.4903 105.518 74 155.5 74C205.482 74 246 95.4903 246 122C246 134.783 236.58 146.398 221.22 155C236.58 163.602 246 175.218 246 188C246 214.51 205.482 236 155.5 236C105.518 236 65 214.51 65 188C65 175.217 74.4205 163.602 89.78 155Z" fill="#CCD65B"/>
<path d="M89.78 155L90.7573 156.745C91.3889 156.391 91.78 155.724 91.78 155C91.78 154.276 91.3889 153.609 90.7573 153.255L89.78 155ZM65 122L63 122V122L65 122ZM155.5 74L155.5 72H155.5L155.5 74ZM221.22 155L220.243 153.255C219.611 153.609 219.22 154.276 219.22 155C219.22 155.724 219.611 156.391 220.243 156.745L221.22 155ZM65 188L63 188V188L65 188ZM90.7573 153.255C75.6609 144.8 67 133.717 67 122L63 122C63 135.848 73.1801 147.996 88.8028 156.745L90.7573 153.255ZM67 122C67 109.849 76.3203 98.3775 92.444 89.8257C108.479 81.321 130.769 76 155.5 76L155.5 72C130.249 72 107.289 77.4242 90.5697 86.292C73.9388 95.1128 63 107.641 63 122L67 122ZM155.5 76C180.231 76 202.521 81.321 218.556 89.8257C234.68 98.3775 244 109.849 244 122H248C248 107.641 237.061 95.1128 220.43 86.292C203.711 77.4242 180.751 72 155.5 72L155.5 76ZM244 122C244 133.717 235.339 144.8 220.243 153.255L222.197 156.745C237.82 147.996 248 135.848 248 122H244ZM220.243 156.745C235.339 165.2 244 176.283 244 188H248C248 174.152 237.82 162.004 222.197 153.255L220.243 156.745ZM244 188C244 200.151 234.68 211.622 218.556 220.174C202.521 228.679 180.231 234 155.5 234V238C180.751 238 203.711 232.576 220.43 223.708C237.061 214.887 248 202.359 248 188H244ZM155.5 234C130.769 234 108.479 228.679 92.444 220.174C76.3203 211.622 67 200.151 67 188L63 188C63 202.359 73.9388 214.887 90.5697 223.708C107.289 232.576 130.249 238 155.5 238V234ZM67 188C67 176.283 75.6609 165.2 90.7573 156.745L88.8028 153.255C73.1801 162.004 63 174.152 63 188L67 188Z" fill="black" mask="url(#path-2-inside-1_135_300)"/>
</svg>
