<svg width="311" height="311" viewBox="0 0 311 311" fill="none" xmlns="http://www.w3.org/2000/svg">
<mask id="path-1-inside-1_135_284" fill="white">
<path fill-rule="evenodd" clip-rule="evenodd" d="M194.509 145C199.427 137.647 202.295 128.806 202.295 119.295C202.295 93.727 181.568 73 156 73C130.432 73 109.705 93.727 109.705 119.295C109.705 128.806 112.573 137.647 117.491 145C117.426 145 117.36 145 117.295 145C91.727 145 71 165.727 71 191.295C71 216.863 91.727 237.59 117.295 237.59C133.347 237.59 147.49 229.421 155.795 217.013C164.1 229.421 178.243 237.59 194.295 237.59C219.863 237.59 240.59 216.863 240.59 191.295C240.59 165.798 219.978 145.115 194.509 145Z"/>
</mask>
<path fill-rule="evenodd" clip-rule="evenodd" d="M194.509 145C199.427 137.647 202.295 128.806 202.295 119.295C202.295 93.727 181.568 73 156 73C130.432 73 109.705 93.727 109.705 119.295C109.705 128.806 112.573 137.647 117.491 145C117.426 145 117.36 145 117.295 145C91.727 145 71 165.727 71 191.295C71 216.863 91.727 237.59 117.295 237.59C133.347 237.59 147.49 229.421 155.795 217.013C164.1 229.421 178.243 237.59 194.295 237.59C219.863 237.59 240.59 216.863 240.59 191.295C240.59 165.798 219.978 145.115 194.509 145Z" fill="#F6CCC4"/>
<path d="M194.509 145L192.846 143.888C192.437 144.501 192.397 145.288 192.742 145.939C193.088 146.589 193.763 146.997 194.5 147L194.509 145ZM117.491 145L117.483 147C118.223 147.003 118.904 146.598 119.254 145.946C119.603 145.295 119.565 144.503 119.154 143.888L117.491 145ZM155.795 217.013L157.457 215.901C157.086 215.346 156.462 215.013 155.795 215.013C155.128 215.013 154.504 215.346 154.133 215.901L155.795 217.013ZM196.171 146.112C201.303 138.44 204.295 129.214 204.295 119.295H200.295C200.295 128.398 197.551 136.854 192.846 143.888L196.171 146.112ZM204.295 119.295C204.295 92.6224 182.673 71 156 71V75C180.463 75 200.295 94.8315 200.295 119.295H204.295ZM156 71C129.327 71 107.705 92.6224 107.705 119.295H111.705C111.705 94.8315 131.537 75 156 75V71ZM107.705 119.295C107.705 129.214 110.697 138.44 115.829 146.112L119.154 143.888C114.449 136.854 111.705 128.398 111.705 119.295H107.705ZM117.5 143C117.432 143 117.363 143 117.295 143V147C117.358 147 117.42 147 117.483 147L117.5 143ZM117.295 143C90.6224 143 69 164.622 69 191.295H73C73 166.831 92.8315 147 117.295 147V143ZM69 191.295C69 217.967 90.6224 239.59 117.295 239.59V235.59C92.8315 235.59 73 215.758 73 191.295H69ZM117.295 239.59C134.042 239.59 148.797 231.064 157.457 218.125L154.133 215.901C146.184 227.777 132.651 235.59 117.295 235.59V239.59ZM194.295 235.59C178.939 235.59 165.406 227.777 157.457 215.901L154.133 218.125C162.793 231.064 177.548 239.59 194.295 239.59V235.59ZM238.59 191.295C238.59 215.758 218.758 235.59 194.295 235.59V239.59C220.968 239.59 242.59 217.967 242.59 191.295H238.59ZM194.5 147C218.869 147.11 238.59 166.9 238.59 191.295H242.59C242.59 164.697 221.088 143.12 194.518 143L194.5 147Z" fill="black" mask="url(#path-1-inside-1_135_284)"/>
<rect x="1" y="1" width="309" height="309" rx="9" stroke="#FCFDF7" stroke-width="2"/>
</svg>
