<svg width="311" height="311" viewBox="0 0 311 311" fill="none" xmlns="http://www.w3.org/2000/svg">
<mask id="path-1-inside-1_135_302" fill="white">
<path fill-rule="evenodd" clip-rule="evenodd" d="M101.917 155.706C84.5848 129.046 79.5909 103.475 91.5332 91.5332C103.464 79.6029 128.995 84.5748 155.626 101.865C182.19 84.6736 207.63 79.7535 219.533 91.6562C231.457 103.581 226.497 129.093 209.228 155.71C226.16 182.093 230.945 207.29 219.118 219.118C207.278 230.957 182.042 226.15 155.63 209.177C129.147 226.251 103.817 231.11 91.9482 219.241C80.101 207.393 84.92 182.135 101.917 155.706Z"/>
</mask>
<path fill-rule="evenodd" clip-rule="evenodd" d="M101.917 155.706C84.5848 129.046 79.5909 103.475 91.5332 91.5332C103.464 79.6029 128.995 84.5748 155.626 101.865C182.19 84.6736 207.63 79.7535 219.533 91.6562C231.457 103.581 226.497 129.093 209.228 155.71C226.16 182.093 230.945 207.29 219.118 219.118C207.278 230.957 182.042 226.15 155.63 209.177C129.147 226.251 103.817 231.11 91.9482 219.241C80.101 207.393 84.92 182.135 101.917 155.706Z" fill="#CCD65B"/>
<path d="M101.917 155.706L103.599 156.788C104.025 156.126 104.023 155.276 103.594 154.616L101.917 155.706ZM91.5332 91.5332L90.119 90.119L91.5332 91.5332ZM155.626 101.865L154.537 103.543C155.199 103.972 156.051 103.973 156.713 103.544L155.626 101.865ZM219.533 91.6562L220.947 90.242L220.947 90.242L219.533 91.6562ZM209.228 155.71L207.55 154.621C207.123 155.28 207.12 156.129 207.545 156.79L209.228 155.71ZM219.118 219.118L220.532 220.532L220.532 220.532L219.118 219.118ZM155.63 209.177L156.711 207.494C156.052 207.07 155.205 207.071 154.546 207.496L155.63 209.177ZM91.9482 219.241L90.534 220.655L90.534 220.655L91.9482 219.241ZM103.594 154.616C95.0242 141.434 89.581 128.632 87.7185 117.763C85.8494 106.855 87.6293 98.2654 92.9474 92.9474L90.119 90.119C83.4948 96.7432 81.8005 106.91 83.7759 118.438C85.7579 130.005 91.4778 143.318 100.24 156.796L103.594 154.616ZM92.9474 92.9474C98.2602 87.6346 106.838 85.8529 117.73 87.7129C128.585 89.5664 141.37 94.9937 154.537 103.543L156.715 100.188C143.251 91.4463 129.955 85.7425 118.403 83.77C106.89 81.8039 96.7366 83.5014 90.119 90.119L92.9474 92.9474ZM156.713 103.544C169.847 95.0444 182.592 89.6544 193.411 87.8223C204.268 85.9839 212.818 87.7699 218.118 93.0704L220.947 90.242C214.345 83.6398 204.223 81.9345 192.743 83.8784C181.227 85.8286 167.97 91.4944 154.54 100.186L156.713 103.544ZM218.118 93.0704C223.429 98.3808 225.211 106.953 223.356 117.837C221.508 128.685 216.088 141.461 207.55 154.621L210.906 156.798C219.636 143.342 225.332 130.054 227.299 118.509C229.261 107.003 227.561 96.8564 220.947 90.242L218.118 93.0704ZM207.545 156.79C215.916 169.833 221.208 182.472 222.985 193.199C224.767 203.961 222.97 212.436 217.703 217.703L220.532 220.532C227.092 213.971 228.817 203.934 226.931 192.545C225.039 181.121 219.472 167.97 210.911 154.63L207.545 156.79ZM217.703 217.703C212.431 222.976 203.944 224.771 193.166 222.979C182.425 221.194 169.769 215.886 156.711 207.494L154.549 210.859C167.903 219.441 181.071 225.024 192.51 226.925C203.914 228.821 213.964 227.099 220.532 220.532L217.703 217.703ZM154.546 207.496C141.453 215.937 128.756 221.283 117.978 223.09C107.164 224.903 98.648 223.112 93.3624 217.826L90.534 220.655C97.1176 227.238 107.201 228.953 118.64 227.035C130.115 225.111 143.324 219.49 156.714 210.857L154.546 207.496ZM93.3624 217.826C88.0866 212.551 86.2925 204.056 88.0889 193.27C89.8793 182.52 95.1961 169.854 103.599 156.788L100.235 154.624C91.6411 167.987 86.0498 181.165 84.1432 192.613C82.2426 204.025 83.9626 214.083 90.534 220.655L93.3624 217.826Z" fill="black" mask="url(#path-1-inside-1_135_302)"/>
<rect x="1" y="1" width="309" height="309" rx="9" stroke="#FCFDF7" stroke-width="2"/>
</svg>
