<svg width="311" height="311" viewBox="0 0 311 311" fill="none" xmlns="http://www.w3.org/2000/svg">
<mask id="path-1-inside-1_135_297" fill="white">
<path fill-rule="evenodd" clip-rule="evenodd" d="M101.917 155.706C84.5848 129.046 79.5909 103.475 91.5332 91.5332C103.464 79.6029 128.995 84.5748 155.626 101.865C182.19 84.6736 207.63 79.7535 219.533 91.6562C231.458 103.581 226.497 129.093 209.228 155.71C226.16 182.093 230.945 207.29 219.118 219.118C207.278 230.957 182.042 226.15 155.63 209.177C129.147 226.251 103.818 231.11 91.9484 219.241C80.1013 207.393 84.9202 182.136 101.917 155.706Z"/>
</mask>
<path fill-rule="evenodd" clip-rule="evenodd" d="M101.917 155.706C84.5848 129.046 79.5909 103.475 91.5332 91.5332C103.464 79.6029 128.995 84.5748 155.626 101.865C182.19 84.6736 207.63 79.7535 219.533 91.6562C231.458 103.581 226.497 129.093 209.228 155.71C226.16 182.093 230.945 207.29 219.118 219.118C207.278 230.957 182.042 226.15 155.63 209.177C129.147 226.251 103.818 231.11 91.9484 219.241C80.1013 207.393 84.9202 182.136 101.917 155.706Z" fill="#EDC666"/>
<path d="M101.917 155.706L103.599 156.788C104.025 156.126 104.023 155.276 103.594 154.616L101.917 155.706ZM91.5332 91.5332L92.9474 92.9474L91.5332 91.5332ZM155.626 101.865L154.537 103.543C155.199 103.972 156.051 103.973 156.713 103.544L155.626 101.865ZM219.533 91.6562L220.947 90.242L220.947 90.242L219.533 91.6562ZM209.228 155.71L207.55 154.622C207.123 155.281 207.121 156.129 207.545 156.79L209.228 155.71ZM219.118 219.118L220.532 220.532L220.532 220.532L219.118 219.118ZM155.63 209.177L156.711 207.494C156.052 207.07 155.205 207.071 154.546 207.496L155.63 209.177ZM91.9484 219.241L93.3626 217.826L93.3626 217.826L91.9484 219.241ZM103.594 154.616C95.0242 141.434 89.581 128.632 87.7185 117.763C85.8494 106.855 87.6293 98.2655 92.9474 92.9474L90.119 90.119C83.4948 96.7432 81.8005 106.91 83.7759 118.438C85.7579 130.005 91.4779 143.318 100.241 156.797L103.594 154.616ZM92.9474 92.9474C98.2602 87.6347 106.838 85.853 117.73 87.7129C128.585 89.5664 141.37 94.9938 154.537 103.543L156.716 100.188C143.251 91.4464 129.955 85.7425 118.403 83.77C106.89 81.8039 96.7366 83.5014 90.119 90.119L92.9474 92.9474ZM156.713 103.544C169.847 95.0445 182.592 89.6544 193.411 87.8223C204.268 85.9839 212.818 87.7699 218.119 93.0705L220.947 90.242C214.345 83.6398 204.223 81.9345 192.744 83.8784C181.227 85.8286 167.97 91.4945 154.54 100.186L156.713 103.544ZM218.119 93.0705C223.429 98.3808 225.212 106.953 223.357 117.837C221.508 128.685 216.089 141.461 207.55 154.622L210.906 156.799C219.637 143.342 225.332 130.054 227.3 118.51C229.261 107.003 227.561 96.8565 220.947 90.242L218.119 93.0705ZM207.545 156.79C215.916 169.834 221.208 182.472 222.985 193.199C224.767 203.961 222.97 212.436 217.703 217.703L220.532 220.532C227.092 213.971 228.817 203.934 226.931 192.545C225.039 181.121 219.472 167.97 210.911 154.63L207.545 156.79ZM217.703 217.703C212.431 222.976 203.944 224.771 193.166 222.979C182.425 221.194 169.769 215.886 156.711 207.494L154.549 210.859C167.903 219.441 181.071 225.024 192.511 226.925C203.914 228.821 213.964 227.099 220.532 220.532L217.703 217.703ZM154.546 207.496C141.453 215.937 128.756 221.283 117.979 223.09C107.164 224.903 98.6482 223.112 93.3626 217.826L90.5342 220.655C97.1178 227.238 107.201 228.953 118.64 227.035C130.115 225.111 143.324 219.49 156.714 210.858L154.546 207.496ZM93.3626 217.826C88.0868 212.551 86.2927 204.056 88.0891 193.27C89.8795 182.52 95.1963 169.855 103.599 156.788L100.235 154.625C91.6412 167.988 86.05 181.165 84.1434 192.613C82.2428 204.025 83.9628 214.083 90.5342 220.655L93.3626 217.826Z" fill="black" mask="url(#path-1-inside-1_135_297)"/>
<rect x="1" y="1" width="309" height="309" rx="9" stroke="#FCFDF7" stroke-width="2"/>
</svg>
