<svg width="311" height="311" viewBox="0 0 311 311" fill="none" xmlns="http://www.w3.org/2000/svg">
<mask id="path-1-inside-1_135_288" fill="white">
<path fill-rule="evenodd" clip-rule="evenodd" d="M101.917 155.707C84.5848 129.046 79.5909 103.476 91.5332 91.5332C103.464 79.6029 128.995 84.5748 155.627 101.865C182.191 84.6736 207.63 79.7534 219.533 91.6562C231.458 103.581 226.497 129.093 209.228 155.71C226.16 182.094 230.945 207.29 219.118 219.118C207.278 230.957 182.043 226.15 155.63 209.177C129.148 226.251 103.818 231.11 91.9487 219.241C80.1015 207.393 84.9204 182.136 101.917 155.707Z"/>
</mask>
<path fill-rule="evenodd" clip-rule="evenodd" d="M101.917 155.707C84.5848 129.046 79.5909 103.476 91.5332 91.5332C103.464 79.6029 128.995 84.5748 155.627 101.865C182.191 84.6736 207.63 79.7534 219.533 91.6562C231.458 103.581 226.497 129.093 209.228 155.71C226.16 182.094 230.945 207.29 219.118 219.118C207.278 230.957 182.043 226.15 155.63 209.177C129.148 226.251 103.818 231.11 91.9487 219.241C80.1015 207.393 84.9204 182.136 101.917 155.707Z" fill="#A8D7F5"/>
<path d="M101.917 155.707L103.6 156.788C104.025 156.127 104.023 155.276 103.594 154.617L101.917 155.707ZM91.5332 91.5332L92.9474 92.9474L91.5332 91.5332ZM155.627 101.865L154.537 103.543C155.199 103.972 156.051 103.973 156.713 103.544L155.627 101.865ZM219.533 91.6562L220.947 90.242L220.947 90.242L219.533 91.6562ZM209.228 155.71L207.55 154.622C207.123 155.281 207.121 156.129 207.545 156.79L209.228 155.71ZM219.118 219.118L220.532 220.532L220.532 220.532L219.118 219.118ZM155.63 209.177L156.711 207.494C156.052 207.07 155.205 207.071 154.546 207.496L155.63 209.177ZM91.9487 219.241L90.5345 220.655L90.5345 220.655L91.9487 219.241ZM103.594 154.617C95.0243 141.434 89.5811 128.632 87.7185 117.763C85.8494 106.855 87.6293 98.2655 92.9474 92.9474L90.119 90.119C83.4948 96.7432 81.8005 106.91 83.776 118.438C85.7579 130.005 91.478 143.318 100.241 156.797L103.594 154.617ZM92.9474 92.9474C98.2602 87.6347 106.838 85.853 117.73 87.7129C128.585 89.5664 141.37 94.9938 154.537 103.543L156.716 100.188C143.252 91.4464 129.955 85.7425 118.403 83.77C106.89 81.8039 96.7366 83.5014 90.119 90.119L92.9474 92.9474ZM156.713 103.544C169.847 95.0445 182.592 89.6544 193.412 87.8223C204.268 85.9838 212.818 87.7699 218.119 93.0704L220.947 90.242C214.345 83.6398 204.224 81.9345 192.744 83.8784C181.227 85.8286 167.97 91.4945 154.54 100.186L156.713 103.544ZM218.119 93.0704C223.429 98.3808 225.212 106.953 223.357 117.838C221.508 128.685 216.089 141.461 207.55 154.622L210.906 156.799C219.637 143.342 225.332 130.054 227.3 118.51C229.261 107.003 227.562 96.8565 220.947 90.242L218.119 93.0704ZM207.545 156.79C215.916 169.834 221.208 182.472 222.985 193.199C224.767 203.961 222.97 212.436 217.703 217.703L220.532 220.532C227.092 213.971 228.817 203.934 226.931 192.545C225.039 181.121 219.473 167.97 210.911 154.63L207.545 156.79ZM217.703 217.703C212.431 222.976 203.944 224.771 193.166 222.979C182.425 221.194 169.769 215.886 156.711 207.494L154.549 210.859C167.903 219.441 181.072 225.024 192.511 226.925C203.914 228.821 213.964 227.099 220.532 220.532L217.703 217.703ZM154.546 207.496C141.453 215.937 128.756 221.283 117.979 223.09C107.165 224.903 98.6485 223.112 93.3629 217.826L90.5345 220.655C97.118 227.238 107.201 228.953 118.64 227.035C130.115 225.111 143.324 219.49 156.714 210.858L154.546 207.496ZM93.3629 217.826C88.0871 212.551 86.293 204.056 88.0893 193.27C89.8797 182.52 95.1965 169.855 103.6 156.788L100.235 154.625C91.6414 167.988 86.0502 181.166 84.1437 192.613C82.2431 204.025 83.9631 214.083 90.5345 220.655L93.3629 217.826Z" fill="black" mask="url(#path-1-inside-1_135_288)"/>
<rect x="1" y="1" width="309" height="309" rx="9" stroke="#FCFDF7" stroke-width="2"/>
</svg>
