<svg width="311" height="311" viewBox="0 0 311 311" fill="none" xmlns="http://www.w3.org/2000/svg">
<mask id="path-1-inside-1_135_289" fill="white">
<path fill-rule="evenodd" clip-rule="evenodd" d="M117 107C117 109.273 117.194 111.5 117.567 113.666C117.694 114.4 117.024 115.042 116.296 114.884C113.622 114.305 110.847 114 108 114C86.4609 114 69 131.461 69 153C69 174.539 86.4609 192 108 192C111.173 192 114.258 191.621 117.212 190.906C118.001 190.715 118.724 191.469 118.501 192.249C117.523 195.664 117 199.271 117 203C117 224.539 134.461 242 156 242C177.539 242 195 224.539 195 203C195 199.271 194.477 195.664 193.499 192.249C193.276 191.469 193.999 190.715 194.788 190.906C197.742 191.621 200.827 192 204 192C225.539 192 243 174.539 243 153C243 131.461 225.539 114 204 114C201.153 114 198.378 114.305 195.704 114.884C194.976 115.042 194.306 114.4 194.433 113.666C194.806 111.5 195 109.273 195 107C195 85.4609 177.539 68 156 68C134.461 68 117 85.4609 117 107Z"/>
</mask>
<path fill-rule="evenodd" clip-rule="evenodd" d="M117 107C117 109.273 117.194 111.5 117.567 113.666C117.694 114.4 117.024 115.042 116.296 114.884C113.622 114.305 110.847 114 108 114C86.4609 114 69 131.461 69 153C69 174.539 86.4609 192 108 192C111.173 192 114.258 191.621 117.212 190.906C118.001 190.715 118.724 191.469 118.501 192.249C117.523 195.664 117 199.271 117 203C117 224.539 134.461 242 156 242C177.539 242 195 224.539 195 203C195 199.271 194.477 195.664 193.499 192.249C193.276 191.469 193.999 190.715 194.788 190.906C197.742 191.621 200.827 192 204 192C225.539 192 243 174.539 243 153C243 131.461 225.539 114 204 114C201.153 114 198.378 114.305 195.704 114.884C194.976 115.042 194.306 114.4 194.433 113.666C194.806 111.5 195 109.273 195 107C195 85.4609 177.539 68 156 68C134.461 68 117 85.4609 117 107Z" fill="#A8D7F5"/>
<path d="M108 114L108 116H108V114ZM69 153L71 153V153H69ZM195.704 114.884L195.281 112.93L195.704 114.884ZM194.433 113.666L192.462 113.327L194.433 113.666ZM193.499 192.249L191.576 192.799L193.499 192.249ZM194.788 190.906L194.318 192.85L194.788 190.906ZM117.212 190.906L116.741 188.962L117.212 190.906ZM117.567 113.666L119.538 113.327L117.567 113.666ZM116.296 114.884L115.872 116.839L116.296 114.884ZM119.538 113.327C119.185 111.272 119 109.158 119 107H115C115 109.387 115.204 111.728 115.596 114.005L119.538 113.327ZM108 116C110.704 116 113.337 116.29 115.872 116.839L116.719 112.93C113.908 112.32 110.99 112 108 112V116ZM71 153C71 132.566 87.5655 116 108 116L108 112C85.3563 112 67 130.356 67 153H71ZM108 190C87.5655 190 71 173.435 71 153L67 153C67 175.644 85.3563 194 108 194V190ZM116.741 188.962C113.94 189.64 111.014 190 108 190V194C111.333 194 114.576 193.602 117.682 192.85L116.741 188.962ZM119 203C119 199.459 119.497 196.037 120.424 192.799L116.578 191.699C115.55 195.291 115 199.083 115 203H119ZM156 240C135.565 240 119 223.435 119 203H115C115 225.644 133.356 244 156 244V240ZM193 203C193 223.435 176.435 240 156 240V244C178.644 244 197 225.644 197 203H193ZM191.576 192.799C192.503 196.037 193 199.459 193 203H197C197 199.083 196.45 195.291 195.422 191.699L191.576 192.799ZM204 190C200.986 190 198.06 189.64 195.259 188.962L194.318 192.85C197.424 193.602 200.667 194 204 194V190ZM241 153C241 173.435 224.435 190 204 190V194C226.644 194 245 175.644 245 153H241ZM204 116C224.435 116 241 132.566 241 153H245C245 130.356 226.644 112 204 112V116ZM196.128 116.839C198.663 116.29 201.296 116 204 116V112C201.01 112 198.092 112.32 195.281 112.93L196.128 116.839ZM193 107C193 109.158 192.815 111.272 192.462 113.327L196.404 114.005C196.796 111.728 197 109.387 197 107H193ZM156 70C176.435 70 193 86.5655 193 107H197C197 84.3563 178.644 66 156 66V70ZM119 107C119 86.5655 135.565 70 156 70V66C133.356 66 115 84.3563 115 107H119ZM195.281 112.93C195.938 112.787 196.518 113.342 196.404 114.005L192.462 113.327C192.094 115.458 194.014 117.297 196.128 116.839L195.281 112.93ZM195.422 191.699C195.527 192.066 195.394 192.403 195.207 192.598C195.021 192.793 194.689 192.939 194.318 192.85L195.259 188.962C192.98 188.41 190.931 190.545 191.576 192.799L195.422 191.699ZM117.682 192.85C117.311 192.939 116.979 192.793 116.793 192.598C116.606 192.403 116.473 192.066 116.578 191.699L120.424 192.799C121.069 190.545 119.02 188.41 116.741 188.962L117.682 192.85ZM115.596 114.005C115.482 113.342 116.062 112.787 116.719 112.93L115.872 116.839C117.986 117.297 119.906 115.458 119.538 113.327L115.596 114.005Z" fill="black" mask="url(#path-1-inside-1_135_289)"/>
<rect x="1" y="1" width="309" height="309" rx="9" stroke="#FCFDF7" stroke-width="2"/>
</svg>
