<svg width="311" height="311" viewBox="0 0 311 311" fill="none" xmlns="http://www.w3.org/2000/svg">
<rect x="1" y="1" width="309" height="309" rx="9" stroke="#FCFDF7" stroke-width="2"/>
<mask id="path-2-inside-1_135_290" fill="white">
<path fill-rule="evenodd" clip-rule="evenodd" d="M96.7 76.98C105.08 54.34 137.09 54.34 145.47 76.98L145.84 77.97C147.248 81.7828 149.511 85.1625 152.403 87.8835C154.198 89.5724 156.972 89.5724 158.767 87.8835C161.659 85.1625 163.922 81.7828 165.33 77.97L165.7 76.98C174.08 54.34 206.09 54.34 214.47 76.98L214.84 77.97C217.47 85.09 223.08 90.7 230.2 93.33L231.19 93.7C253.83 102.08 253.83 134.09 231.19 142.47L230.2 142.84C224.928 144.787 220.485 148.368 217.465 152.986C216.432 154.566 216.432 156.604 217.465 158.184C220.485 162.802 224.928 166.383 230.2 168.33L231.19 168.7C253.83 177.08 253.83 209.09 231.19 217.47L230.2 217.84C223.08 220.47 217.47 226.08 214.84 233.2L214.47 234.19C206.09 256.83 174.08 256.83 165.7 234.19L165.33 233.2C163.922 229.387 161.659 226.007 158.767 223.286C156.972 221.598 154.198 221.598 152.403 223.286C149.511 226.007 147.248 229.387 145.84 233.2L145.47 234.19C137.09 256.83 105.08 256.83 96.7 234.19L96.33 233.2C93.7 226.08 88.09 220.47 80.97 217.84L79.98 217.47C57.34 209.09 57.34 177.08 79.98 168.7L80.97 168.33C86.2415 166.383 90.6853 162.802 93.7048 158.184C94.7381 156.604 94.7381 154.566 93.7048 152.986C90.6853 148.368 86.2415 144.787 80.97 142.84L79.98 142.47C57.34 134.09 57.34 102.08 79.98 93.7L80.97 93.33C88.09 90.7 93.7 85.09 96.33 77.97L96.7 76.98Z"/>
</mask>
<path fill-rule="evenodd" clip-rule="evenodd" d="M96.7 76.98C105.08 54.34 137.09 54.34 145.47 76.98L145.84 77.97C147.248 81.7828 149.511 85.1625 152.403 87.8835C154.198 89.5724 156.972 89.5724 158.767 87.8835C161.659 85.1625 163.922 81.7828 165.33 77.97L165.7 76.98C174.08 54.34 206.09 54.34 214.47 76.98L214.84 77.97C217.47 85.09 223.08 90.7 230.2 93.33L231.19 93.7C253.83 102.08 253.83 134.09 231.19 142.47L230.2 142.84C224.928 144.787 220.485 148.368 217.465 152.986C216.432 154.566 216.432 156.604 217.465 158.184C220.485 162.802 224.928 166.383 230.2 168.33L231.19 168.7C253.83 177.08 253.83 209.09 231.19 217.47L230.2 217.84C223.08 220.47 217.47 226.08 214.84 233.2L214.47 234.19C206.09 256.83 174.08 256.83 165.7 234.19L165.33 233.2C163.922 229.387 161.659 226.007 158.767 223.286C156.972 221.598 154.198 221.598 152.403 223.286C149.511 226.007 147.248 229.387 145.84 233.2L145.47 234.19C137.09 256.83 105.08 256.83 96.7 234.19L96.33 233.2C93.7 226.08 88.09 220.47 80.97 217.84L79.98 217.47C57.34 209.09 57.34 177.08 79.98 168.7L80.97 168.33C86.2415 166.383 90.6853 162.802 93.7048 158.184C94.7381 156.604 94.7381 154.566 93.7048 152.986C90.6853 148.368 86.2415 144.787 80.97 142.84L79.98 142.47C57.34 134.09 57.34 102.08 79.98 93.7L80.97 93.33C88.09 90.7 93.7 85.09 96.33 77.97L96.7 76.98Z" fill="#A8D7F5"/>
<path d="M145.47 76.98L143.594 77.6743L143.597 77.6802L145.47 76.98ZM96.7 76.98L98.5734 77.6802L98.5756 77.6743L96.7 76.98ZM145.84 77.97L147.716 77.277L147.713 77.2698L145.84 77.97ZM165.33 77.97L163.457 77.2698L163.454 77.277L165.33 77.97ZM165.7 76.98L167.573 77.6802L167.576 77.6743L165.7 76.98ZM214.47 76.98L212.594 77.6743L212.597 77.6802L214.47 76.98ZM214.84 77.97L216.716 77.277L216.713 77.2698L214.84 77.97ZM230.2 93.33L230.9 91.4565L230.893 91.4539L230.2 93.33ZM231.19 93.7L230.49 95.5734L230.496 95.5756L231.19 93.7ZM231.19 142.47L230.496 140.594L230.49 140.597L231.19 142.47ZM230.2 142.84L230.893 144.716L230.9 144.713L230.2 142.84ZM230.2 168.33L230.9 166.457L230.893 166.454L230.2 168.33ZM231.19 168.7L230.49 170.573L230.496 170.576L231.19 168.7ZM231.19 217.47L230.496 215.594L230.49 215.597L231.19 217.47ZM230.2 217.84L230.893 219.716L230.9 219.713L230.2 217.84ZM214.84 233.2L216.713 233.9L216.716 233.893L214.84 233.2ZM214.47 234.19L212.597 233.49L212.594 233.496L214.47 234.19ZM165.7 234.19L167.576 233.496L167.573 233.49L165.7 234.19ZM165.33 233.2L163.454 233.893L163.457 233.9L165.33 233.2ZM145.84 233.2L147.713 233.9L147.716 233.893L145.84 233.2ZM145.47 234.19L143.597 233.49L143.594 233.496L145.47 234.19ZM96.7 234.19L98.5756 233.496L98.5734 233.49L96.7 234.19ZM96.33 233.2L94.4539 233.893L94.4566 233.9L96.33 233.2ZM80.97 217.84L80.2698 219.713L80.277 219.716L80.97 217.84ZM79.98 217.47L80.6802 215.597L80.6743 215.594L79.98 217.47ZM79.98 168.7L80.6743 170.576L80.6802 170.573L79.98 168.7ZM80.97 168.33L80.277 166.454L80.2698 166.457L80.97 168.33ZM80.97 142.84L80.2698 144.713L80.277 144.716L80.97 142.84ZM79.98 142.47L80.6802 140.597L80.6743 140.594L79.98 142.47ZM79.98 93.7L80.6743 95.5756L80.6802 95.5734L79.98 93.7ZM80.97 93.33L80.277 91.4539L80.2698 91.4566L80.97 93.33ZM96.33 77.97L94.4566 77.2698L94.4539 77.277L96.33 77.97ZM158.767 223.286L160.138 221.83L158.767 223.286ZM217.465 152.986L215.791 151.891L217.465 152.986ZM217.465 158.184L215.791 159.279L217.465 158.184ZM158.767 87.8835L160.138 89.3401L158.767 87.8835ZM147.346 76.2857C138.321 51.9048 103.849 51.9048 94.8244 76.2857L98.5756 77.6743C106.311 56.7752 135.859 56.7753 143.594 77.6743L147.346 76.2857ZM147.713 77.2698L147.343 76.2798L143.597 77.6802L143.967 78.6702L147.713 77.2698ZM153.774 86.427C151.105 83.9155 149.016 80.7963 147.716 77.277L143.964 78.663C145.481 82.7693 147.918 86.4095 151.032 89.3401L153.774 86.427ZM163.454 77.277C162.154 80.7963 160.065 83.9155 157.396 86.427L160.138 89.3401C163.252 86.4095 165.689 82.7693 167.206 78.663L163.454 77.277ZM163.827 76.2798L163.457 77.2698L167.203 78.6702L167.573 77.6802L163.827 76.2798ZM216.346 76.2857C207.321 51.9048 172.849 51.9048 163.824 76.2857L167.576 77.6743C175.311 56.7752 204.859 56.7752 212.594 77.6743L216.346 76.2857ZM216.713 77.2698L216.343 76.2798L212.597 77.6802L212.967 78.6702L216.713 77.2698ZM230.893 91.4539C224.321 89.0264 219.144 83.8487 216.716 77.277L212.964 78.663C215.796 86.3313 221.839 92.3736 229.507 95.2061L230.893 91.4539ZM231.89 91.8266L230.9 91.4566L229.5 95.2034L230.49 95.5734L231.89 91.8266ZM231.884 144.346C256.265 135.321 256.265 100.849 231.884 91.8244L230.496 95.5756C251.395 103.311 251.395 132.859 230.496 140.594L231.884 144.346ZM230.9 144.713L231.89 144.343L230.49 140.597L229.5 140.967L230.9 144.713ZM219.139 154.08C221.926 149.818 226.027 146.513 230.893 144.716L229.507 140.964C223.83 143.061 219.043 146.918 215.791 151.891L219.139 154.08ZM230.893 166.454C226.027 164.657 221.926 161.352 219.139 157.09L215.791 159.279C219.043 164.252 223.83 168.109 229.507 170.206L230.893 166.454ZM231.89 166.827L230.9 166.457L229.5 170.203L230.49 170.573L231.89 166.827ZM231.884 219.346C256.265 210.321 256.265 175.849 231.884 166.824L230.496 170.576C251.395 178.311 251.395 207.859 230.496 215.594L231.884 219.346ZM230.9 219.713L231.89 219.343L230.49 215.597L229.5 215.967L230.9 219.713ZM216.716 233.893C219.144 227.321 224.321 222.144 230.893 219.716L229.507 215.964C221.839 218.796 215.796 224.839 212.964 232.507L216.716 233.893ZM216.343 234.89L216.713 233.9L212.967 232.5L212.597 233.49L216.343 234.89ZM163.824 234.884C172.849 259.265 207.321 259.265 216.346 234.884L212.594 233.496C204.859 254.395 175.311 254.395 167.576 233.496L163.824 234.884ZM163.457 233.9L163.827 234.89L167.573 233.49L167.203 232.5L163.457 233.9ZM157.396 224.743C160.065 227.254 162.154 230.374 163.454 233.893L167.206 232.507C165.689 228.401 163.252 224.76 160.138 221.83L157.396 224.743ZM147.716 233.893C149.016 230.374 151.105 227.254 153.774 224.743L151.032 221.83C147.918 224.76 145.481 228.401 143.964 232.507L147.716 233.893ZM147.343 234.89L147.713 233.9L143.967 232.5L143.597 233.49L147.343 234.89ZM94.8244 234.884C103.849 259.265 138.321 259.265 147.346 234.884L143.594 233.496C135.859 254.395 106.311 254.395 98.5756 233.496L94.8244 234.884ZM94.4566 233.9L94.8266 234.89L98.5734 233.49L98.2034 232.5L94.4566 233.9ZM80.277 219.716C86.8487 222.144 92.0264 227.321 94.4539 233.893L98.2061 232.507C95.3736 224.839 89.3313 218.796 81.663 215.964L80.277 219.716ZM79.2798 219.343L80.2698 219.713L81.6702 215.967L80.6802 215.597L79.2798 219.343ZM79.2857 166.824C54.9048 175.849 54.9048 210.321 79.2857 219.346L80.6743 215.594C59.7752 207.859 59.7752 178.311 80.6743 170.576L79.2857 166.824ZM80.2698 166.457L79.2798 166.827L80.6802 170.573L81.6702 170.203L80.2698 166.457ZM92.0309 157.09C89.244 161.352 85.1426 164.657 80.277 166.454L81.663 170.206C87.3405 168.109 92.1267 164.252 95.3787 159.279L92.0309 157.09ZM80.277 144.716C85.1426 146.513 89.244 149.818 92.0309 154.08L95.3787 151.891C92.1267 146.918 87.3405 143.061 81.663 140.964L80.277 144.716ZM79.2798 144.343L80.2698 144.713L81.6702 140.967L80.6802 140.597L79.2798 144.343ZM79.2857 91.8244C54.9048 100.849 54.9048 135.321 79.2857 144.346L80.6743 140.594C59.7753 132.859 59.7752 103.311 80.6743 95.5756L79.2857 91.8244ZM80.2698 91.4566L79.2798 91.8266L80.6802 95.5734L81.6702 95.2034L80.2698 91.4566ZM94.4539 77.277C92.0264 83.8487 86.8487 89.0264 80.277 91.4539L81.663 95.2061C89.3313 92.3736 95.3736 86.3313 98.2061 78.663L94.4539 77.277ZM94.8266 76.2798L94.4566 77.2698L98.2034 78.6702L98.5734 77.6802L94.8266 76.2798ZM95.3787 159.279C96.8468 157.034 96.8468 154.136 95.3787 151.891L92.0309 154.08C92.6294 154.995 92.6294 156.175 92.0309 157.09L95.3787 159.279ZM160.138 221.83C157.573 219.416 153.597 219.416 151.032 221.83L153.774 224.743C154.798 223.779 156.372 223.779 157.396 224.743L160.138 221.83ZM215.791 151.891C214.323 154.136 214.323 157.034 215.791 159.279L219.139 157.09C218.541 156.175 218.541 154.995 219.139 154.08L215.791 151.891ZM151.032 89.3401C153.597 91.7535 157.573 91.7535 160.138 89.3401L157.396 86.427C156.372 87.3912 154.798 87.3912 153.774 86.427L151.032 89.3401Z" fill="black" mask="url(#path-2-inside-1_135_290)"/>
</svg>
