<svg width="311" height="311" viewBox="0 0 311 311" fill="none" xmlns="http://www.w3.org/2000/svg">
<rect x="1" y="1" width="309" height="309" rx="9" stroke="#FCFDF7" stroke-width="2"/>
<mask id="path-2-inside-1_135_305" fill="white">
<path fill-rule="evenodd" clip-rule="evenodd" d="M76.3166 118.658C62.6731 97.6716 58.7422 77.5434 68.1428 68.1428C77.534 58.7516 97.6314 62.6653 118.595 76.2758C132.162 67.4958 145.356 62.7819 155.509 63.1127C165.701 62.7747 178.962 67.5249 192.589 76.3722C213.5 62.8389 233.525 58.9657 242.895 68.3353C252.282 77.7224 248.377 97.8052 234.783 118.758C242.493 130.773 247.004 142.475 247.633 152.008C249.517 162.564 244.759 177.472 234.783 192.848C248.111 213.616 251.877 233.45 242.567 242.76C233.247 252.08 213.383 248.296 192.592 234.935C177.967 244.364 163.789 249.06 153.403 247.798C143.597 247.568 131.27 242.982 118.598 234.839C97.7513 248.279 77.8122 252.104 68.4691 242.761C59.1432 233.435 62.9367 213.553 76.3166 192.748C66.268 177.291 61.488 162.3 63.4224 151.718C64.1252 142.211 68.6452 130.586 76.3166 118.658Z"/>
</mask>
<path fill-rule="evenodd" clip-rule="evenodd" d="M76.3166 118.658C62.6731 97.6716 58.7422 77.5434 68.1428 68.1428C77.534 58.7516 97.6314 62.6653 118.595 76.2758C132.162 67.4958 145.356 62.7819 155.509 63.1127C165.701 62.7747 178.962 67.5249 192.589 76.3722C213.5 62.8389 233.525 58.9657 242.895 68.3353C252.282 77.7224 248.377 97.8052 234.783 118.758C242.493 130.773 247.004 142.475 247.633 152.008C249.517 162.564 244.759 177.472 234.783 192.848C248.111 213.616 251.877 233.45 242.567 242.76C233.247 252.08 213.383 248.296 192.592 234.935C177.967 244.364 163.789 249.06 153.403 247.798C143.597 247.568 131.27 242.982 118.598 234.839C97.7513 248.279 77.8122 252.104 68.4691 242.761C59.1432 233.435 62.9367 213.553 76.3166 192.748C66.268 177.291 61.488 162.3 63.4224 151.718C64.1252 142.211 68.6452 130.586 76.3166 118.658Z" fill="#CCD65B"/>
<path d="M68.1428 68.1428L66.8555 66.8555L66.8555 66.8555L68.1428 68.1428ZM76.3166 118.658L77.8478 119.643C78.2353 119.04 78.2334 118.266 77.8429 117.666L76.3166 118.658ZM118.595 76.2758L117.604 77.8026C118.206 78.1936 118.981 78.1941 119.584 77.8041L118.595 76.2758ZM155.509 63.1127L155.449 64.9322C155.489 64.9335 155.529 64.9335 155.569 64.9321L155.509 63.1127ZM192.589 76.3722L191.597 77.899C192.2 78.29 192.975 78.2905 193.578 77.9005L192.589 76.3722ZM242.895 68.3353L244.182 67.0481L244.182 67.0481L242.895 68.3353ZM234.783 118.758L233.256 117.767C232.866 118.367 232.864 119.139 233.251 119.741L234.783 118.758ZM247.633 152.008L245.817 152.128C245.821 152.195 245.829 152.262 245.841 152.328L247.633 152.008ZM234.783 192.848L233.255 191.858C232.866 192.457 232.864 193.23 233.251 193.832L234.783 192.848ZM192.592 234.935L193.576 233.404C192.975 233.018 192.205 233.019 191.605 233.405L192.592 234.935ZM153.403 247.798L153.623 245.991C153.564 245.984 153.505 245.979 153.446 245.978L153.403 247.798ZM118.598 234.839L119.582 233.307C118.982 232.922 118.211 232.922 117.611 233.309L118.598 234.839ZM68.4691 242.761L67.1818 244.048L67.1818 244.048L68.4691 242.761ZM76.3166 192.748L77.8478 193.733C78.2353 193.13 78.2334 192.357 77.8429 191.756L76.3166 192.748ZM63.4224 151.718L65.2132 152.045C65.2249 151.981 65.2331 151.917 65.2379 151.852L63.4224 151.718ZM66.8555 66.8555C61.5608 72.1503 60.2323 80.2502 61.7938 89.3632C63.3613 98.5107 67.8809 109.022 74.7903 119.65L77.8429 117.666C71.1089 107.307 66.8412 97.2615 65.3825 88.7482C63.9178 80.2003 65.3242 73.5359 69.43 69.43L66.8555 66.8555ZM119.586 74.7489C108.97 67.856 98.4716 63.3491 89.3357 61.7891C80.2341 60.235 72.145 61.5661 66.8555 66.8555L69.43 69.43C73.5318 65.3283 80.1869 63.9206 88.7228 65.3781C97.2243 66.8298 107.257 71.085 117.604 77.8026L119.586 74.7489ZM155.568 61.2932C144.883 60.9451 131.313 65.8762 117.606 74.7474L119.584 77.8041C133.01 69.1153 145.829 64.6188 155.449 64.9322L155.568 61.2932ZM193.58 74.8453C179.813 65.9066 166.175 60.9375 155.448 61.2932L155.569 64.9321C165.227 64.6119 178.111 69.1431 191.597 77.899L193.58 74.8453ZM244.182 67.0481C238.905 61.7708 230.841 60.4334 221.766 61.9702C212.657 63.5127 202.19 67.9899 191.6 74.8438L193.578 77.9005C203.898 71.2212 213.9 66.9951 222.374 65.56C230.882 64.1193 237.515 65.5302 241.608 69.6226L244.182 67.0481ZM236.31 119.749C243.195 109.138 247.695 98.6458 249.251 89.5154C250.802 80.4192 249.469 72.3351 244.182 67.0481L241.608 69.6226C245.708 73.7226 247.116 80.3734 245.662 88.9037C244.214 97.3996 239.965 107.426 233.256 117.767L236.31 119.749ZM249.45 151.888C248.793 141.935 244.117 129.933 236.315 117.775L233.251 119.741C240.87 131.614 245.215 143.016 245.817 152.128L249.45 151.888ZM245.841 152.328C247.602 162.193 243.152 176.605 233.255 191.858L236.31 193.839C246.366 178.339 251.433 162.935 249.425 151.688L245.841 152.328ZM243.854 244.047C249.098 238.803 250.451 230.807 248.96 221.803C247.464 212.768 243.065 202.384 236.315 191.865L233.251 193.832C239.828 204.081 243.977 213.998 245.368 222.398C246.765 230.831 245.346 237.406 241.279 241.473L243.854 244.047ZM191.607 236.467C202.138 243.234 212.535 247.645 221.582 249.149C230.597 250.647 238.605 249.297 243.854 244.047L241.279 241.473C237.209 245.544 230.624 246.961 222.179 245.557C213.767 244.159 203.836 239.998 193.576 233.404L191.607 236.467ZM191.605 233.405C177.113 242.748 163.381 247.177 153.623 245.991L153.183 249.605C164.197 250.944 178.821 245.98 193.578 236.465L191.605 233.405ZM117.614 236.37C130.429 244.606 143.087 249.377 153.36 249.618L153.446 245.978C144.107 245.759 132.111 241.359 119.582 233.307L117.614 236.37ZM67.1818 244.048C72.4441 249.311 80.4779 250.655 89.5207 249.139C98.5966 247.618 109.026 243.176 119.584 236.369L117.611 233.309C107.323 239.942 97.3598 244.133 88.9187 245.548C80.4446 246.969 73.8372 245.555 69.7563 241.474L67.1818 244.048ZM74.7855 191.763C68.0087 202.301 63.5904 212.706 62.0824 221.76C60.5799 230.782 61.9292 238.796 67.1818 244.048L69.7563 241.474C65.6831 237.401 64.2662 230.81 65.6739 222.358C67.0762 213.939 71.2446 204 77.8478 193.733L74.7855 191.763ZM61.6316 151.39C59.5699 162.669 64.6622 178.161 74.7903 193.74L77.8429 191.756C67.8739 176.422 63.4061 161.931 65.2132 152.045L61.6316 151.39ZM74.7855 117.673C67.0225 129.744 62.3402 141.664 61.6069 151.583L65.2379 151.852C65.9101 142.759 70.2679 131.429 77.8478 119.643L74.7855 117.673Z" fill="black" mask="url(#path-2-inside-1_135_305)"/>
</svg>
