<svg width="311" height="311" viewBox="0 0 311 311" fill="none" xmlns="http://www.w3.org/2000/svg">
<rect x="1" y="1" width="309" height="309" rx="9" stroke="#FCFDF7" stroke-width="2"/>
<mask id="path-2-inside-1_135_279" fill="white">
<path fill-rule="evenodd" clip-rule="evenodd" d="M177.209 73C168.985 73 161.657 76.8831 156.921 82.9358C152.129 76.8831 144.716 73 136.397 73C121.947 73 110.234 84.7136 110.234 99.163C110.234 102.584 110.89 105.852 112.084 108.847C108.273 106.703 103.862 105.478 99.163 105.478C84.7136 105.478 73 117.057 73 131.34C73 142.907 80.6809 152.699 91.2757 156.007C80.6809 159.352 73 169.259 73 180.96C73 195.409 84.7136 207.123 99.163 207.123C103.191 207.123 107.006 206.213 110.415 204.586C109.554 207.18 109.087 209.954 109.087 212.837C109.087 227.286 120.801 239 135.25 239C144.048 239 151.831 234.658 156.574 228C161.262 234.658 168.956 239 177.653 239C191.936 239 203.515 227.286 203.515 212.837C203.515 209.815 203.009 206.914 202.077 204.214C205.359 205.696 209.002 206.521 212.837 206.521C227.286 206.521 239 194.808 239 180.358C239 168.992 231.751 159.318 221.624 155.708C231.751 152.139 239 142.576 239 131.34C239 117.057 227.286 105.478 212.837 105.478C208.799 105.478 204.974 106.383 201.559 107.998C202.538 105.238 203.071 102.263 203.071 99.163C203.071 84.7136 191.492 73 177.209 73Z"/>
</mask>
<path fill-rule="evenodd" clip-rule="evenodd" d="M177.209 73C168.985 73 161.657 76.8831 156.921 82.9358C152.129 76.8831 144.716 73 136.397 73C121.947 73 110.234 84.7136 110.234 99.163C110.234 102.584 110.89 105.852 112.084 108.847C108.273 106.703 103.862 105.478 99.163 105.478C84.7136 105.478 73 117.057 73 131.34C73 142.907 80.6809 152.699 91.2757 156.007C80.6809 159.352 73 169.259 73 180.96C73 195.409 84.7136 207.123 99.163 207.123C103.191 207.123 107.006 206.213 110.415 204.586C109.554 207.18 109.087 209.954 109.087 212.837C109.087 227.286 120.801 239 135.25 239C144.048 239 151.831 234.658 156.574 228C161.262 234.658 168.956 239 177.653 239C191.936 239 203.515 227.286 203.515 212.837C203.515 209.815 203.009 206.914 202.077 204.214C205.359 205.696 209.002 206.521 212.837 206.521C227.286 206.521 239 194.808 239 180.358C239 168.992 231.751 159.318 221.624 155.708C231.751 152.139 239 142.576 239 131.34C239 117.057 227.286 105.478 212.837 105.478C208.799 105.478 204.974 106.383 201.559 107.998C202.538 105.238 203.071 102.263 203.071 99.163C203.071 84.7136 191.492 73 177.209 73Z" fill="#F6CCC4"/>
<path d="M156.921 82.9358L156.137 83.5565L156.925 84.5525L157.708 83.5521L156.921 82.9358ZM177.209 73L177.209 72H177.209V73ZM112.084 108.847L111.594 109.719L114.062 111.107L113.013 108.477L112.084 108.847ZM91.2757 156.007L91.5768 156.96L94.614 156.001L91.5736 155.052L91.2757 156.007ZM110.415 204.586L111.364 204.902L112.104 202.673L109.984 203.684L110.415 204.586ZM109.087 212.837L110.087 212.837V212.837H109.087ZM156.574 228L157.392 227.424L156.579 226.269L155.76 227.419L156.574 228ZM202.077 204.214L202.489 203.302L200.376 202.348L201.132 204.54L202.077 204.214ZM221.624 155.708L221.292 154.765L218.631 155.702L221.289 156.65L221.624 155.708ZM201.559 107.998L200.617 107.663L199.813 109.93L201.987 108.902L201.559 107.998ZM157.708 83.5521C162.265 77.7291 169.308 74 177.209 74V72C168.662 72 161.05 76.0371 156.133 82.3194L157.708 83.5521ZM136.397 74C144.398 74 151.526 77.7331 156.137 83.5565L157.705 82.315C152.731 76.0331 145.035 72 136.397 72V74ZM111.234 99.163C111.234 85.2658 122.499 74 136.397 74V72C121.395 72 109.234 84.1613 109.234 99.163H111.234ZM113.013 108.477C111.865 105.597 111.234 102.455 111.234 99.163H109.234C109.234 102.713 109.915 106.106 111.155 109.218L113.013 108.477ZM99.163 106.478C103.687 106.478 107.928 107.657 111.594 109.719L112.575 107.976C108.617 105.749 104.038 104.478 99.163 104.478V106.478ZM74 131.34C74 117.62 85.2549 106.478 99.163 106.478V104.478C84.1722 104.478 72 116.494 72 131.34H74ZM91.5736 155.052C81.3783 151.87 74 142.45 74 131.34H72C72 143.363 79.9836 153.529 90.9777 156.961L91.5736 155.052ZM74 180.96C74 169.708 81.3861 160.178 91.5768 156.96L90.9745 155.053C79.9758 158.526 72 168.81 72 180.96H74ZM99.163 206.123C85.2658 206.123 74 194.857 74 180.96H72C72 195.962 84.1613 208.123 99.163 208.123V206.123ZM109.984 203.684C106.708 205.247 103.039 206.123 99.163 206.123V208.123C103.343 208.123 107.305 207.178 110.845 205.489L109.984 203.684ZM110.087 212.837C110.087 210.062 110.536 207.395 111.364 204.902L109.466 204.271C108.571 206.965 108.087 209.845 108.087 212.837H110.087ZM135.25 238C121.353 238 110.087 226.734 110.087 212.837L108.087 212.837C108.087 227.838 120.249 240 135.25 240V238ZM155.76 227.419C151.196 233.825 143.711 238 135.25 238V240C144.385 240 152.466 235.49 157.388 228.58L155.76 227.419ZM177.653 238C169.298 238 161.903 233.83 157.392 227.424L155.756 228.575C160.622 235.485 168.614 240 177.653 240V238ZM202.515 212.837C202.515 226.745 191.373 238 177.653 238V240C192.499 240 204.515 227.827 204.515 212.837H202.515ZM201.132 204.54C202.027 207.136 202.515 209.928 202.515 212.837H204.515C204.515 209.703 203.99 206.691 203.022 203.887L201.132 204.54ZM212.837 205.521C209.146 205.521 205.644 204.728 202.489 203.302L201.665 205.125C205.074 206.665 208.857 207.521 212.837 207.521V205.521ZM238 180.358C238 194.256 226.734 205.521 212.837 205.521V207.521C227.839 207.521 240 195.36 240 180.358H238ZM221.289 156.65C231.03 160.122 238 169.428 238 180.358H240C240 168.556 232.473 158.514 221.96 154.766L221.289 156.65ZM238 131.34C238 142.133 231.037 151.33 221.292 154.765L221.957 156.651C232.465 152.948 240 143.02 240 131.34H238ZM212.837 106.478C226.745 106.478 238 117.62 238 131.34H240C240 116.494 227.828 104.478 212.837 104.478V106.478ZM201.987 108.902C205.271 107.349 208.949 106.478 212.837 106.478V104.478C208.648 104.478 204.678 105.417 201.132 107.094L201.987 108.902ZM202.071 99.163C202.071 102.148 201.558 105.01 200.617 107.663L202.502 108.332C203.518 105.466 204.071 102.379 204.071 99.163H202.071ZM177.209 74C190.929 74 202.071 85.2549 202.071 99.163H204.071C204.071 84.1722 192.055 72 177.209 72L177.209 74Z" fill="black" mask="url(#path-2-inside-1_135_279)"/>
</svg>
