<svg width="311" height="311" viewBox="0 0 311 311" fill="none" xmlns="http://www.w3.org/2000/svg">
<path d="M150.996 58.4356L119.159 10.3104C116.521 6.32171 119.381 1 124.163 1H187.837C192.619 1 195.479 6.32173 192.841 10.3104L161.004 58.4356C158.632 62.0218 153.368 62.0218 150.996 58.4356Z" fill="#1B9B5A" stroke="black" stroke-width="2"/>
<path d="M161.004 252.564L192.841 300.69C195.479 304.678 192.619 310 187.837 310L124.163 310C119.381 310 116.521 304.678 119.159 300.69L150.996 252.564C153.368 248.978 158.632 248.978 161.004 252.564Z" fill="#1B9B5A" stroke="black" stroke-width="2"/>
<path d="M252.564 150.496L300.69 118.659C304.678 116.021 310 118.881 310 123.663L310 187.337C310 192.119 304.678 194.979 300.69 192.341L252.564 160.504C248.978 158.132 248.978 152.868 252.564 150.496Z" fill="#1B9B5A" stroke="black" stroke-width="2"/>
<path d="M58.4356 160.504L10.3104 192.341C6.32171 194.979 1 192.119 1 187.337L1.00001 123.663C1.00001 118.881 6.32174 116.021 10.3104 118.659L58.4356 150.496C62.0218 152.868 62.0218 158.132 58.4356 160.504Z" fill="#1B9B5A" stroke="black" stroke-width="2"/>
<rect x="1" y="1" width="309" height="309" rx="9" stroke="black" stroke-width="2"/>
</svg>
