<svg width="314" height="313" viewBox="0 0 314 313" fill="none" xmlns="http://www.w3.org/2000/svg">
<path d="M285.03 287.12C285.4 287.254 285.815 287.158 286.089 286.875C286.362 286.593 286.445 286.175 286.299 285.809C283.445 278.655 281.87 270.86 281.87 262.69C281.87 240.368 293.609 220.782 311.26 209.773V226.235C301.061 235.822 294.68 249.448 294.68 264.56C294.68 279.673 301.061 293.289 311.26 302.875V305.228L309.702 307.883L307.456 310.13L305.067 310.953C295.489 300.846 281.935 294.54 266.91 294.54C251.806 294.54 237.903 301.05 228.29 311.44H211.827C222.976 294.564 242.11 283.43 263.85 283.43C271.293 283.43 278.418 284.729 285.03 287.12Z" fill="#17654F" stroke="black" stroke-width="2" stroke-linejoin="round"/>
<path d="M28.2298 287.12C27.8595 287.254 27.4451 287.158 27.1712 286.875C26.8974 286.593 26.815 286.175 26.9609 285.809C29.815 278.655 31.3898 270.86 31.3898 262.69C31.3898 240.368 19.6512 220.782 1.99976 209.773V226.235C12.1988 235.822 18.5798 249.448 18.5798 264.56C18.5798 279.673 12.1986 293.289 1.99976 302.875V305.228L3.55747 307.883L5.80376 310.13L8.19274 310.953C17.7711 300.846 31.3248 294.54 46.3498 294.54C61.4538 294.54 75.3565 301.05 84.9695 311.44H101.433C90.2842 294.564 71.1501 283.43 49.4098 283.43C41.9671 283.43 34.8421 284.729 28.2298 287.12Z" fill="#17654F" stroke="black" stroke-width="2" stroke-linejoin="round"/>
<path d="M28.2298 25.3197C27.8595 25.1858 27.4451 25.2816 27.1712 25.5646C26.8974 25.8475 26.8151 26.2648 26.961 26.6306C29.815 33.7853 31.3898 41.5797 31.3898 49.7501C31.3898 72.0719 19.6512 91.6581 1.99976 102.667L1.99976 86.205C12.1988 76.6184 18.5798 62.9925 18.5798 47.8801C18.5798 32.7674 12.1986 19.1514 1.99976 9.56514L1.99976 7.21174L3.55748 4.55656L5.80377 2.31028L8.19275 1.48673C17.7711 11.5942 31.3248 17.9 46.3498 17.9C61.4538 17.9001 75.3565 11.3903 84.9695 1.00006L101.433 1.00006C90.2842 17.8763 71.1501 29.0101 49.4098 29.0101C41.9671 29.0101 34.8421 27.7107 28.2298 25.3197Z" fill="#17654F" stroke="black" stroke-width="2" stroke-linejoin="round"/>
<path d="M285.03 25.3198C285.4 25.1859 285.815 25.2818 286.089 25.5647C286.362 25.8476 286.445 26.265 286.299 26.6307C283.445 33.7854 281.87 41.5798 281.87 49.7502C281.87 72.072 293.609 91.6582 311.26 102.668L311.26 86.2051C301.061 76.6185 294.68 62.9927 294.68 47.8802C294.68 32.7675 301.061 19.1516 311.26 9.56528L311.26 7.21188L309.702 4.5567L307.456 2.31042L305.067 1.48687C295.489 11.5943 281.935 17.9002 266.91 17.9002C251.806 17.9002 237.903 11.3905 228.29 1.00018L211.827 1.00018C222.976 17.8764 242.11 29.0102 263.85 29.0102C271.293 29.0102 278.418 27.7108 285.03 25.3198Z" fill="#17654F" stroke="black" stroke-width="2" stroke-linejoin="round"/>
<path d="M302.35 1H11.3496C5.82676 1 1.34961 5.47715 1.34961 11V302C1.34961 307.523 5.82676 312 11.3496 312H302.35C307.872 312 312.35 307.523 312.35 302V11C312.35 5.47715 307.872 1 302.35 1Z" stroke="black" stroke-width="2"/>
</svg>
