<svg width="314" height="313" viewBox="0 0 314 313" fill="none" xmlns="http://www.w3.org/2000/svg">
<path d="M285.03 287.12C285.4 287.254 285.815 287.158 286.089 286.875C286.362 286.593 286.445 286.175 286.299 285.809C283.445 278.655 281.87 270.86 281.87 262.69C281.87 240.368 293.609 220.782 311.26 209.773V226.235C301.061 235.822 294.68 249.448 294.68 264.56C294.68 279.673 301.061 293.289 311.26 302.875V305.228L309.702 307.883L307.456 310.13L305.067 310.953C295.489 300.846 281.935 294.54 266.91 294.54C251.806 294.54 237.903 301.05 228.29 311.44H211.827C222.976 294.564 242.11 283.43 263.85 283.43C271.293 283.43 278.418 284.729 285.03 287.12Z" fill="#17654F" stroke="black" stroke-width="2" stroke-linejoin="round"/>
<path d="M28.2298 25.3195C27.8595 25.1856 27.4451 25.2815 27.1712 25.5644C26.8974 25.8474 26.8151 26.2647 26.961 26.6304C29.815 33.7852 31.3898 41.5796 31.3898 49.7499C31.3898 72.0717 19.6512 91.6579 1.99976 102.667L1.99976 86.2048C12.1988 76.6182 18.5798 62.9924 18.5798 47.8799C18.5798 32.7673 12.1986 19.1513 1.99976 9.56502L1.99976 7.21162L3.55748 4.55644L5.80377 2.31016L8.19275 1.48661C17.7711 11.594 31.3248 17.8999 46.3498 17.8999C61.4538 17.8999 75.3565 11.3902 84.9695 0.999937L101.433 0.999939C90.2842 17.8762 71.1501 29.0099 49.4098 29.0099C41.9671 29.0099 34.8421 27.7106 28.2298 25.3195Z" fill="#17654F" stroke="black" stroke-width="2" stroke-linejoin="round"/>
<path d="M302.35 1H11.3496C5.82676 1 1.34961 5.47715 1.34961 11V302C1.34961 307.523 5.82676 312 11.3496 312H302.35C307.872 312 312.35 307.523 312.35 302V11C312.35 5.47715 307.872 1 302.35 1Z" stroke="black" stroke-width="2"/>
</svg>
