<svg width="76" height="78" viewBox="0 0 76 78" fill="none" xmlns="http://www.w3.org/2000/svg">
<mask id="path-1-inside-1_65_133" fill="white">
<path fill-rule="evenodd" clip-rule="evenodd" d="M33.6489 6.92807C30.2297 -2.30936 17.1692 -2.30936 13.7501 6.92807L13.5991 7.33201C12.526 10.2371 10.2371 12.526 7.33201 13.5991L6.92807 13.7501C-2.30936 17.1692 -2.30936 30.2297 6.92807 33.6489L7.33201 33.7999C9.23541 34.5029 10.8743 35.728 12.0801 37.3063C12.8442 38.3065 12.8442 39.6935 12.0801 40.6937C10.8743 42.272 9.23541 43.4971 7.33201 44.2002L6.92807 44.3511C-2.30936 47.7703 -2.30936 60.8308 6.92807 64.25L7.33201 64.4009C10.2371 65.474 12.526 67.763 13.5991 70.668L13.7501 71.072C17.1692 80.3094 30.2297 80.3094 33.6489 71.072L33.7999 70.668C34.2495 69.4507 34.9127 68.3415 35.7453 67.3847C36.8238 66.1451 38.7275 66.1451 39.8061 67.3847C40.6386 68.3415 41.3018 69.4507 41.7514 70.668L41.9024 71.072C45.3216 80.3094 58.3821 80.3094 61.8012 71.072L61.9522 70.668C63.0253 67.763 65.3142 65.474 68.2193 64.4009L68.6232 64.25C77.8607 60.8308 77.8607 47.7703 68.6232 44.3511L68.2193 44.2002C66.3159 43.4971 64.677 42.272 63.4712 40.6937C62.7071 39.6935 62.7071 38.3065 63.4712 37.3063C64.677 35.728 66.3159 34.5029 68.2193 33.7999L68.6232 33.6489C77.8607 30.2297 77.8607 17.1692 68.6232 13.7501L68.2193 13.5991C65.3142 12.526 63.0253 10.2371 61.9522 7.33201L61.8012 6.92807C58.3821 -2.30936 45.3216 -2.30936 41.9024 6.92807L41.7514 7.33201C41.3018 8.54936 40.6386 9.65853 39.8061 10.6154C38.7275 11.8549 36.8238 11.8549 35.7453 10.6154C34.9127 9.65853 34.2495 8.54936 33.7999 7.33201L33.6489 6.92807ZM40.2324 40.6937C40.9965 39.6935 40.9965 38.3066 40.2324 37.3063C40.0958 37.1275 39.9536 36.9531 39.806 36.7836C38.7275 35.544 36.8238 35.544 35.7453 36.7836C35.5977 36.9531 35.4555 37.1275 35.3189 37.3063C34.5548 38.3066 34.5548 39.6935 35.3189 40.6937C35.4555 40.8726 35.5977 41.0469 35.7453 41.2164C36.8238 42.456 38.7275 42.456 39.806 41.2164C39.9536 41.0469 40.0958 40.8726 40.2324 40.6937Z"/>
</mask>
<path fill-rule="evenodd" clip-rule="evenodd" d="M33.6489 6.92807C30.2297 -2.30936 17.1692 -2.30936 13.7501 6.92807L13.5991 7.33201C12.526 10.2371 10.2371 12.526 7.33201 13.5991L6.92807 13.7501C-2.30936 17.1692 -2.30936 30.2297 6.92807 33.6489L7.33201 33.7999C9.23541 34.5029 10.8743 35.728 12.0801 37.3063C12.8442 38.3065 12.8442 39.6935 12.0801 40.6937C10.8743 42.272 9.23541 43.4971 7.33201 44.2002L6.92807 44.3511C-2.30936 47.7703 -2.30936 60.8308 6.92807 64.25L7.33201 64.4009C10.2371 65.474 12.526 67.763 13.5991 70.668L13.7501 71.072C17.1692 80.3094 30.2297 80.3094 33.6489 71.072L33.7999 70.668C34.2495 69.4507 34.9127 68.3415 35.7453 67.3847C36.8238 66.1451 38.7275 66.1451 39.8061 67.3847C40.6386 68.3415 41.3018 69.4507 41.7514 70.668L41.9024 71.072C45.3216 80.3094 58.3821 80.3094 61.8012 71.072L61.9522 70.668C63.0253 67.763 65.3142 65.474 68.2193 64.4009L68.6232 64.25C77.8607 60.8308 77.8607 47.7703 68.6232 44.3511L68.2193 44.2002C66.3159 43.4971 64.677 42.272 63.4712 40.6937C62.7071 39.6935 62.7071 38.3065 63.4712 37.3063C64.677 35.728 66.3159 34.5029 68.2193 33.7999L68.6232 33.6489C77.8607 30.2297 77.8607 17.1692 68.6232 13.7501L68.2193 13.5991C65.3142 12.526 63.0253 10.2371 61.9522 7.33201L61.8012 6.92807C58.3821 -2.30936 45.3216 -2.30936 41.9024 6.92807L41.7514 7.33201C41.3018 8.54936 40.6386 9.65853 39.8061 10.6154C38.7275 11.8549 36.8238 11.8549 35.7453 10.6154C34.9127 9.65853 34.2495 8.54936 33.7999 7.33201L33.6489 6.92807ZM40.2324 40.6937C40.9965 39.6935 40.9965 38.3066 40.2324 37.3063C40.0958 37.1275 39.9536 36.9531 39.806 36.7836C38.7275 35.544 36.8238 35.544 35.7453 36.7836C35.5977 36.9531 35.4555 37.1275 35.3189 37.3063C34.5548 38.3066 34.5548 39.6935 35.3189 40.6937C35.4555 40.8726 35.5977 41.0469 35.7453 41.2164C36.8238 42.456 38.7275 42.456 39.806 41.2164C39.9536 41.0469 40.0958 40.8726 40.2324 40.6937Z" fill="#FCFDF7"/>
<path d="M13.7501 6.92807L14.2184 7.10312L14.219 7.10164L13.7501 6.92807ZM33.6489 6.92807L33.18 7.10164L33.1805 7.10312L33.6489 6.92807ZM13.5991 7.33201L13.1307 7.15696L13.1301 7.15876L13.5991 7.33201ZM7.33201 13.5991L7.15876 13.1301L7.15696 13.1307L7.33201 13.5991ZM6.92807 13.7501L7.10164 14.219L7.10312 14.2184L6.92807 13.7501ZM6.92807 33.6489L7.10312 33.1805L7.10164 33.18L6.92807 33.6489ZM7.33201 33.7999L7.15697 34.2682L7.15876 34.2689L7.33201 33.7999ZM7.33201 44.2002L7.15876 43.7312L7.15697 43.7318L7.33201 44.2002ZM6.92807 44.3511L7.10164 44.8201L7.10312 44.8195L6.92807 44.3511ZM6.92807 64.25L7.10312 63.7816L7.10164 63.7811L6.92807 64.25ZM7.33201 64.4009L7.15697 64.8693L7.15876 64.87L7.33201 64.4009ZM13.5991 70.668L13.1301 70.8413L13.1307 70.8431L13.5991 70.668ZM13.7501 71.072L14.219 70.8984L14.2184 70.8969L13.7501 71.072ZM33.6489 71.072L33.1805 70.8969L33.18 70.8984L33.6489 71.072ZM33.7999 70.668L34.2682 70.8431L34.2689 70.8413L33.7999 70.668ZM41.7514 70.668L41.2824 70.8413L41.2831 70.8431L41.7514 70.668ZM41.9024 71.072L42.3713 70.8984L42.3708 70.8969L41.9024 71.072ZM61.8012 71.072L61.3329 70.8969L61.3323 70.8984L61.8012 71.072ZM61.9522 70.668L62.4206 70.8431L62.4212 70.8413L61.9522 70.668ZM68.2193 64.4009L68.3925 64.87L68.3943 64.8693L68.2193 64.4009ZM68.6232 64.25L68.4497 63.7811L68.4482 63.7816L68.6232 64.25ZM68.6232 44.3511L68.4482 44.8195L68.4497 44.82L68.6232 44.3511ZM68.2193 44.2002L68.3943 43.7318L68.3925 43.7312L68.2193 44.2002ZM68.2193 33.7999L68.3925 34.2689L68.3943 34.2682L68.2193 33.7999ZM68.6232 33.6489L68.4497 33.18L68.4482 33.1805L68.6232 33.6489ZM68.6232 13.7501L68.4482 14.2184L68.4497 14.219L68.6232 13.7501ZM68.2193 13.5991L68.3943 13.1307L68.3925 13.1301L68.2193 13.5991ZM61.9522 7.33201L62.4212 7.15876L62.4206 7.15697L61.9522 7.33201ZM61.8012 6.92807L61.3323 7.10164L61.3329 7.10312L61.8012 6.92807ZM41.9024 6.92807L42.3708 7.10312L42.3713 7.10164L41.9024 6.92807ZM41.7514 7.33201L41.2831 7.15697L41.2824 7.15876L41.7514 7.33201ZM33.7999 7.33201L34.2689 7.15876L34.2682 7.15697L33.7999 7.33201ZM39.806 41.2164L40.1833 41.5447L39.806 41.2164ZM39.806 36.7836L40.1833 36.4554L39.806 36.7836ZM35.7453 36.7836L35.3681 36.4554L35.7453 36.7836ZM35.7453 10.6154L35.3681 10.9436L35.7453 10.6154ZM63.4712 40.6937L63.8686 40.3902L63.4712 40.6937ZM40.2324 37.3063L40.6297 37.0028L40.2324 37.3063ZM40.2324 40.6937L40.6297 40.9972L40.2324 40.6937ZM35.3189 37.3063L35.7162 37.6099L35.3189 37.3063ZM35.7453 67.3847L36.1225 67.7129L35.7453 67.3847ZM12.0801 40.6937L12.4774 40.9973L12.0801 40.6937ZM14.219 7.10164C17.477 -1.70055 29.9219 -1.70055 33.18 7.10164L34.1178 6.75451C30.5375 -2.91817 16.8614 -2.91817 13.2812 6.75451L14.219 7.10164ZM14.0675 7.50705L14.2184 7.10312L13.2817 6.75303L13.1307 7.15696L14.0675 7.50705ZM7.50526 14.0681C10.5474 12.9444 12.9444 10.5474 14.0681 7.50526L13.1301 7.15876C12.1076 9.92674 9.92674 12.1076 7.15876 13.1301L7.50526 14.0681ZM7.10312 14.2184L7.50705 14.0675L7.15696 13.1307L6.75303 13.2817L7.10312 14.2184ZM7.10164 33.18C-1.70055 29.9219 -1.70055 17.477 7.10164 14.219L6.75451 13.2812C-2.91817 16.8614 -2.91817 30.5375 6.75451 34.1178L7.10164 33.18ZM7.50705 33.3315L7.10312 33.1805L6.75303 34.1173L7.15697 34.2682L7.50705 33.3315ZM12.4774 37.0028C11.2148 35.35 9.49847 34.0671 7.50526 33.3308L7.15876 34.2689C8.97236 34.9388 10.5339 36.106 11.6827 37.6098L12.4774 37.0028ZM7.50526 44.6692C9.49847 43.9329 11.2148 42.65 12.4774 40.9973L11.6827 40.3902C10.5339 41.894 8.97236 43.0612 7.15876 43.7312L7.50526 44.6692ZM7.10312 44.8195L7.50705 44.6685L7.15697 43.7318L6.75303 43.8828L7.10312 44.8195ZM7.10164 63.7811C-1.70055 60.523 -1.70055 48.0781 7.10164 44.8201L6.75451 43.8822C-2.91817 47.4625 -2.91817 61.1386 6.75451 64.7189L7.10164 63.7811ZM7.50705 63.9326L7.10312 63.7816L6.75303 64.7183L7.15697 64.8693L7.50705 63.9326ZM14.0681 70.4948C12.9444 67.4527 10.5474 65.0556 7.50526 63.9319L7.15876 64.87C9.92674 65.8924 12.1076 68.0733 13.1301 70.8413L14.0681 70.4948ZM14.2184 70.8969L14.0675 70.493L13.1307 70.8431L13.2817 71.247L14.2184 70.8969ZM33.18 70.8984C29.9219 79.7006 17.477 79.7006 14.219 70.8984L13.2812 71.2455C16.8614 80.9182 30.5375 80.9182 34.1178 71.2455L33.18 70.8984ZM33.3315 70.493L33.1805 70.8969L34.1173 71.247L34.2682 70.8431L33.3315 70.493ZM35.3681 67.0565C34.4962 68.0585 33.8017 69.22 33.3308 70.4948L34.2689 70.8413C34.6974 69.6813 35.3292 68.6245 36.1225 67.7129L35.3681 67.0565ZM42.2205 70.4948C41.7496 69.22 41.0551 68.0585 40.1833 67.0565L39.4289 67.7129C40.2221 68.6245 40.854 69.6813 41.2824 70.8413L42.2205 70.4948ZM42.3708 70.8969L42.2198 70.493L41.2831 70.8431L41.434 71.247L42.3708 70.8969ZM61.3323 70.8984C58.0743 79.7006 45.6294 79.7006 42.3713 70.8984L41.4335 71.2455C45.0138 80.9182 58.6899 80.9182 62.2702 71.2455L61.3323 70.8984ZM61.4838 70.493L61.3329 70.8969L62.2696 71.247L62.4206 70.8431L61.4838 70.493ZM68.0461 63.9319C65.0039 65.0556 62.6069 67.4526 61.4832 70.4948L62.4212 70.8413C63.4437 68.0733 65.6246 65.8924 68.3925 64.87L68.0461 63.9319ZM68.4482 63.7816L68.0443 63.9326L68.3943 64.8693L68.7983 64.7183L68.4482 63.7816ZM68.4497 44.82C77.2519 48.0781 77.2519 60.523 68.4497 63.7811L68.7968 64.7189C78.4695 61.1386 78.4695 47.4625 68.7968 43.8822L68.4497 44.82ZM68.0443 44.6685L68.4482 44.8195L68.7983 43.8828L68.3943 43.7318L68.0443 44.6685ZM63.0739 40.9973C64.3365 42.65 66.0528 43.9329 68.0461 44.6692L68.3925 43.7312C66.5789 43.0612 65.0174 41.894 63.8686 40.3902L63.0739 40.9973ZM68.0461 33.3308C66.0528 34.0671 64.3365 35.35 63.0739 37.0028L63.8686 37.6098C65.0174 36.106 66.5789 34.9388 68.3925 34.2689L68.0461 33.3308ZM68.4482 33.1805L68.0443 33.3315L68.3943 34.2682L68.7983 34.1173L68.4482 33.1805ZM68.4497 14.219C77.2519 17.477 77.2519 29.9219 68.4497 33.18L68.7968 34.1178C78.4695 30.5375 78.4695 16.8614 68.7968 13.2812L68.4497 14.219ZM68.0443 14.0675L68.4482 14.2184L68.7983 13.2817L68.3943 13.1307L68.0443 14.0675ZM61.4832 7.50526C62.6069 10.5474 65.0039 12.9444 68.0461 14.0681L68.3925 13.1301C65.6246 12.1076 63.4437 9.92674 62.4212 7.15876L61.4832 7.50526ZM61.3329 7.10312L61.4838 7.50705L62.4206 7.15697L62.2696 6.75303L61.3329 7.10312ZM42.3713 7.10164C45.6294 -1.70055 58.0743 -1.70055 61.3323 7.10164L62.2702 6.75451C58.6899 -2.91817 45.0138 -2.91817 41.4335 6.75451L42.3713 7.10164ZM42.2198 7.50705L42.3708 7.10312L41.434 6.75303L41.2831 7.15697L42.2198 7.50705ZM40.1833 10.9436C41.0551 9.94155 41.7496 8.78 42.2205 7.50526L41.2824 7.15876C40.854 8.31872 40.2221 9.3755 39.4288 10.2872L40.1833 10.9436ZM33.3308 7.50526C33.8017 8.78 34.4962 9.94155 35.3681 10.9436L36.1225 10.2872C35.3292 9.3755 34.6974 8.31872 34.2689 7.15876L33.3308 7.50526ZM33.1805 7.10312L33.3315 7.50705L34.2682 7.15697L34.1173 6.75303L33.1805 7.10312ZM40.6297 37.0028C40.4867 36.8155 40.3377 36.6329 40.1833 36.4554L39.4288 37.1118C39.5694 37.2733 39.7049 37.4394 39.8351 37.6099L40.6297 37.0028ZM35.3681 36.4554C35.2136 36.6329 35.0647 36.8155 34.9216 37.0028L35.7162 37.6099C35.8464 37.4394 35.9819 37.2733 36.1225 37.1118L35.3681 36.4554ZM34.9216 40.9972C35.0647 41.1845 35.2136 41.3671 35.3681 41.5447L36.1225 40.8882C35.9819 40.7267 35.8464 40.5606 35.7162 40.3902L34.9216 40.9972ZM40.1833 41.5447C40.3377 41.3671 40.4867 41.1845 40.6297 40.9972L39.8351 40.3902C39.7049 40.5606 39.5694 40.7267 39.4288 40.8882L40.1833 41.5447ZM35.3681 41.5447C36.6459 43.0133 38.9054 43.0133 40.1833 41.5447L39.4288 40.8882C38.5496 41.8987 37.0017 41.8987 36.1225 40.8882L35.3681 41.5447ZM40.1833 36.4554C38.9054 34.9868 36.6459 34.9868 35.3681 36.4554L36.1225 37.1118C37.0017 36.1013 38.5496 36.1013 39.4288 37.1118L40.1833 36.4554ZM39.4288 10.2872C38.5496 11.2977 37.0017 11.2977 36.1225 10.2872L35.3681 10.9436C36.6459 12.4122 38.9054 12.4122 40.1833 10.9436L39.4288 10.2872ZM63.8686 40.3902C63.2414 39.5692 63.2414 38.4309 63.8686 37.6098L63.0739 37.0028C62.1729 38.1822 62.1729 39.8178 63.0739 40.9973L63.8686 40.3902ZM39.8351 37.6099C40.4623 38.4309 40.4623 39.5691 39.8351 40.3902L40.6297 40.9972C41.5307 39.8178 41.5307 38.1822 40.6297 37.0028L39.8351 37.6099ZM34.9216 37.0028C34.0206 38.1822 34.0206 39.8178 34.9216 40.9972L35.7162 40.3902C35.089 39.5691 35.089 38.4309 35.7162 37.6099L34.9216 37.0028ZM36.1225 67.7129C37.0017 66.7024 38.5496 66.7024 39.4289 67.7129L40.1833 67.0565C38.9054 65.5879 36.6459 65.5879 35.3681 67.0565L36.1225 67.7129ZM11.6827 37.6098C12.3099 38.4309 12.3099 39.5692 11.6827 40.3902L12.4774 40.9973C13.3784 39.8178 13.3784 38.1822 12.4774 37.0028L11.6827 37.6098Z" fill="black" mask="url(#path-1-inside-1_65_133)"/>
</svg>
