<svg width="76" height="76" viewBox="0 0 76 76" fill="none" xmlns="http://www.w3.org/2000/svg">
<mask id="path-1-inside-1_65_120" fill="white">
<path fill-rule="evenodd" clip-rule="evenodd" d="M5.43401 22.9341C-0.133248 14.371 -1.7374 6.15793 2.09832 2.3222C5.93017 -1.50964 14.1305 0.0873878 22.6842 5.641C28.2193 2.0587 33.6024 0.135269 37.745 0.269861C41.9036 0.131591 47.3145 2.06958 52.8747 5.67943C61.4062 0.158071 69.5767 -1.42204 73.3995 2.4008C77.2294 6.23068 75.6364 14.4242 70.0903 22.9728C73.2405 27.8812 75.0817 32.6617 75.3352 36.554C76.0974 40.8599 74.1561 46.9359 70.0903 53.2028C75.5289 61.6768 77.066 69.7696 73.2671 73.5686C69.4643 77.3714 61.3591 75.8273 52.8758 70.3755C46.9084 74.223 41.1232 76.1394 36.8853 75.6241C32.8846 75.5302 27.8552 73.6593 22.6854 70.3371C14.1799 75.8207 6.04477 77.3811 2.23272 73.5691C-1.57221 69.7641 -0.024694 61.6522 5.43401 53.1641C1.32995 46.8516 -0.620438 40.7292 0.174461 36.4105C0.463962 32.5342 2.30742 27.7959 5.43401 22.9341Z"/>
</mask>
<path fill-rule="evenodd" clip-rule="evenodd" d="M5.43401 22.9341C-0.133248 14.371 -1.7374 6.15793 2.09832 2.3222C5.93017 -1.50964 14.1305 0.0873878 22.6842 5.641C28.2193 2.0587 33.6024 0.135269 37.745 0.269861C41.9036 0.131591 47.3145 2.06958 52.8747 5.67943C61.4062 0.158071 69.5767 -1.42204 73.3995 2.4008C77.2294 6.23068 75.6364 14.4242 70.0903 22.9728C73.2405 27.8812 75.0817 32.6617 75.3352 36.554C76.0974 40.8599 74.1561 46.9359 70.0903 53.2028C75.5289 61.6768 77.066 69.7696 73.2671 73.5686C69.4643 77.3714 61.3591 75.8273 52.8758 70.3755C46.9084 74.223 41.1232 76.1394 36.8853 75.6241C32.8846 75.5302 27.8552 73.6593 22.6854 70.3371C14.1799 75.8207 6.04477 77.3811 2.23272 73.5691C-1.57221 69.7641 -0.024694 61.6522 5.43401 53.1641C1.32995 46.8516 -0.620438 40.7292 0.174461 36.4105C0.463962 32.5342 2.30742 27.7959 5.43401 22.9341Z" fill="#FCFDF7"/>
<path d="M2.09832 2.3222L2.45188 2.67575L2.09832 2.3222ZM5.43401 22.9341L5.85456 23.2045L6.02944 22.9326L5.85321 22.6616L5.43401 22.9341ZM22.6842 5.641L22.4119 6.06036L22.6838 6.23686L22.9559 6.06076L22.6842 5.641ZM37.745 0.269861L37.7288 0.769597L37.7452 0.770131L37.7616 0.769584L37.745 0.269861ZM52.8747 5.67943L52.6024 6.0988L52.8742 6.27528L53.1463 6.0992L52.8747 5.67943ZM73.3995 2.4008L73.7531 2.04725V2.04725L73.3995 2.4008ZM70.0903 22.9728L69.6709 22.7007L69.4953 22.9713L69.6695 23.2429L70.0903 22.9728ZM75.3352 36.554L74.8363 36.5865L74.838 36.614L74.8428 36.6411L75.3352 36.554ZM70.0903 53.2028L69.6709 52.9306L69.4953 53.2013L69.6695 53.4728L70.0903 53.2028ZM52.8758 70.3755L53.1461 69.9549L52.8754 69.7809L52.6049 69.9553L52.8758 70.3755ZM36.8853 75.6241L36.9457 75.1278L36.9214 75.1248L36.897 75.1243L36.8853 75.6241ZM22.6854 70.3371L22.9557 69.9164L22.6849 69.7424L22.4144 69.9168L22.6854 70.3371ZM2.23272 73.5691L2.58627 73.2155H2.58627L2.23272 73.5691ZM5.43401 53.1641L5.85456 53.4345L6.02944 53.1626L5.85321 52.8915L5.43401 53.1641ZM0.174461 36.4105L0.666201 36.501L0.67107 36.4746L0.673073 36.4477L0.174461 36.4105ZM1.74477 1.96865C-0.336365 4.04978 -0.883545 7.25913 -0.252767 10.9398C0.379641 14.6301 2.2071 18.888 5.01482 23.2066L5.85321 22.6616C3.09367 18.4171 1.33542 14.2869 0.732864 10.7709C0.12868 7.2454 0.697286 4.43035 2.45188 2.67575L1.74477 1.96865ZM22.9565 5.22164C18.6426 2.42077 14.3901 0.598545 10.7047 -0.030811C7.02878 -0.658554 3.8238 -0.110381 1.74477 1.96865L2.45188 2.67575C4.20469 0.922938 7.0158 0.353705 10.5364 0.954919C14.0476 1.55452 18.1721 3.30762 22.4119 6.06036L22.9565 5.22164ZM37.7613 -0.229876C33.4725 -0.369218 27.9863 1.61389 22.4126 5.22124L22.9559 6.06076C28.4523 2.5035 33.7324 0.639755 37.7288 0.769597L37.7613 -0.229876ZM53.1469 5.26006C47.5481 1.62512 42.0339 -0.373015 37.7284 -0.229863L37.7616 0.769584C41.7734 0.636198 47.0808 2.51404 52.6024 6.0988L53.1469 5.26006ZM73.7531 2.04725C71.6789 -0.0268784 68.4842 -0.577469 64.8194 0.0430588C61.1453 0.665156 56.9059 2.475 52.603 5.25967L53.1463 6.0992C57.375 3.3625 61.4866 1.62161 64.9863 1.02902C68.4954 0.434868 71.2972 1.00564 73.046 2.75435L73.7531 2.04725ZM70.5098 23.2449C73.3069 18.9335 75.1262 14.6841 75.7538 11.0013C76.3798 7.32786 75.831 4.1252 73.7531 2.04725L73.046 2.75435C74.7979 4.50629 75.3675 7.31531 74.768 10.8333C74.1701 14.3418 72.4199 18.4634 69.6709 22.7007L70.5098 23.2449ZM75.8341 36.5215C75.5731 32.5134 73.6865 27.6503 70.5111 22.7027L69.6695 23.2429C72.7946 28.1121 74.5903 32.81 74.8363 36.5865L75.8341 36.5215ZM74.8428 36.6411C75.5715 40.7577 73.7146 46.6977 69.6709 52.9306L70.5098 53.4749C74.5976 47.1741 76.6232 40.9621 75.8275 36.4668L74.8428 36.6411ZM73.6206 73.9221C75.6818 71.861 76.2383 68.6928 75.636 65.0571C75.0324 61.4126 73.2542 57.2068 70.5111 52.9327L69.6695 53.4728C72.365 57.6728 74.0747 61.7504 74.6495 65.2205C75.2257 68.6995 74.6513 71.4772 72.9135 73.215L73.6206 73.9221ZM52.6055 70.7961C56.8842 73.5459 61.0954 75.3291 64.7446 75.9357C68.385 76.5409 71.5574 75.9854 73.6206 73.9221L72.9135 73.215C71.174 74.9546 68.3924 75.5284 64.9086 74.9493C61.4337 74.3716 57.3507 72.657 53.1461 69.9549L52.6055 70.7961ZM52.6049 69.9553C46.6739 73.7793 41.0112 75.6221 36.9457 75.1278L36.825 76.1205C41.2352 76.6567 47.1429 74.6667 53.1467 70.7957L52.6049 69.9553ZM22.4151 70.7577C27.6242 74.1052 32.7445 76.0271 36.8736 76.124L36.897 75.1243C33.0247 75.0334 28.0862 73.2134 22.9557 69.9164L22.4151 70.7577ZM1.87917 73.9226C3.94744 75.9909 7.13011 76.5442 10.7817 75.932C14.4423 75.3184 18.6665 73.523 22.9563 70.7573L22.4144 69.9168C18.1988 72.6347 14.1027 74.3614 10.6164 74.9458C7.12098 75.5318 4.33005 74.9593 2.58627 73.2155L1.87917 73.9226ZM5.01347 52.8936C2.26027 57.1748 0.474415 61.3889 -0.133705 65.0406C-0.740336 68.6835 -0.185239 71.8582 1.87917 73.9226L2.58627 73.2155C0.845752 71.475 0.272141 68.6913 0.852712 65.2049C1.43179 61.7275 3.14905 57.6415 5.85456 53.4345L5.01347 52.8936ZM-0.317279 36.32C-1.14745 40.8304 0.88894 47.0905 5.01482 53.4366L5.85321 52.8915C1.77096 46.6126 -0.0934234 40.6281 0.666201 36.501L-0.317279 36.32ZM5.01347 22.6636C1.86173 27.5645 -0.0261907 32.3837 -0.32415 36.3733L0.673073 36.4477C0.954114 32.6847 2.75311 28.0272 5.85456 23.2045L5.01347 22.6636Z" fill="black" mask="url(#path-1-inside-1_65_120)"/>
</svg>
