<svg width="74" height="67" viewBox="0 0 74 67" fill="none" xmlns="http://www.w3.org/2000/svg">
<mask id="path-1-inside-1_65_117" fill="white">
<path fill-rule="evenodd" clip-rule="evenodd" d="M10.1106 33.1693C3.84371 29.6595 -2.2797e-07 24.9202 0 19.7048C4.72799e-07 8.88847 16.532 0.120116 36.9252 0.120117C57.3185 0.120118 73.8505 8.88847 73.8505 19.7048C73.8505 24.9202 70.0068 29.6595 63.7398 33.1693C70.0068 36.679 73.8505 41.4183 73.8505 46.6338C73.8505 57.4501 57.3185 66.2184 36.9252 66.2184C16.532 66.2184 -4.72792e-07 57.4501 0 46.6338C2.27978e-07 41.4183 3.84371 36.679 10.1106 33.1693Z"/>
</mask>
<path fill-rule="evenodd" clip-rule="evenodd" d="M10.1106 33.1693C3.84371 29.6595 -2.2797e-07 24.9202 0 19.7048C4.72799e-07 8.88847 16.532 0.120116 36.9252 0.120117C57.3185 0.120118 73.8505 8.88847 73.8505 19.7048C73.8505 24.9202 70.0068 29.6595 63.7398 33.1693C70.0068 36.679 73.8505 41.4183 73.8505 46.6338C73.8505 57.4501 57.3185 66.2184 36.9252 66.2184C16.532 66.2184 -4.72792e-07 57.4501 0 46.6338C2.27978e-07 41.4183 3.84371 36.679 10.1106 33.1693Z" fill="#FCFDF7"/>
<path d="M10.1106 33.1693L10.355 33.6055L11.1339 33.1693L10.355 32.733L10.1106 33.1693ZM0 19.7048H-0.5H0ZM36.9252 0.120117V-0.379883V0.120117ZM63.7398 33.1693L63.4955 32.733L62.7166 33.1693L63.4955 33.6055L63.7398 33.1693ZM0 46.6338H-0.5H0ZM10.355 32.733C4.1538 29.2601 0.5 24.6539 0.5 19.7048H-0.5C-0.5 25.1866 3.53362 30.0589 9.86633 33.6055L10.355 32.733ZM0.5 19.7048C0.5 14.5726 4.43069 9.80854 11.0494 6.29805C17.646 2.7993 26.7937 0.620117 36.9252 0.620117V-0.379883C26.6636 -0.379883 17.3486 1.82511 10.5809 5.41462C3.83531 8.99237 -0.5 14.0206 -0.5 19.7048H0.5ZM36.9252 0.620117C47.0568 0.620118 56.2045 2.7993 62.8011 6.29805C69.4198 9.80855 73.3505 14.5726 73.3505 19.7048H74.3505C74.3505 14.0206 70.0152 8.99238 63.2696 5.41462C56.5019 1.82511 47.1869 -0.379882 36.9252 -0.379883V0.620117ZM73.3505 19.7048C73.3505 24.6539 69.6967 29.2601 63.4955 32.733L63.9842 33.6055C70.3169 30.0589 74.3505 25.1866 74.3505 19.7048H73.3505ZM63.4955 33.6055C69.6967 37.0784 73.3505 41.6846 73.3505 46.6338H74.3505C74.3505 41.152 70.3169 36.2796 63.9842 32.733L63.4955 33.6055ZM73.3505 46.6338C73.3505 51.7659 69.4198 56.53 62.8011 60.0405C56.2045 63.5392 47.0568 65.7184 36.9252 65.7184V66.7184C47.1869 66.7184 56.5019 64.5134 63.2696 60.9239C70.0152 57.3462 74.3505 52.3179 74.3505 46.6338H73.3505ZM36.9252 65.7184C26.7937 65.7184 17.646 63.5392 11.0494 60.0405C4.43069 56.53 0.5 51.7659 0.5 46.6338H-0.5C-0.5 52.3179 3.83531 57.3462 10.5809 60.9239C17.3486 64.5134 26.6636 66.7184 36.9252 66.7184V65.7184ZM0.5 46.6338C0.5 41.6846 4.1538 37.0784 10.355 33.6055L9.86633 32.733C3.53363 36.2796 -0.5 41.1519 -0.5 46.6338H0.5Z" fill="black" mask="url(#path-1-inside-1_65_117)"/>
</svg>
