<svg width="68" height="69" viewBox="0 0 68 69" fill="none" xmlns="http://www.w3.org/2000/svg">
<mask id="path-1-inside-1_65_138" fill="white">
<path fill-rule="evenodd" clip-rule="evenodd" d="M14.7246 10.9791C14.7246 5.08351 19.5039 0.304199 25.3995 0.304199C28.9889 0.3042 32.1645 2.07576 34.0997 4.79221C36.0127 2.07576 39.1518 0.304199 42.6999 0.304199C48.5277 0.3042 53.2521 5.08351 53.2521 10.9791C53.2521 12.207 53.0472 13.3865 52.67 14.4844C54.0079 13.8877 55.4925 13.5557 57.0555 13.5557C62.9511 13.5557 67.7304 18.28 67.7304 24.1078C67.7304 28.6924 64.7728 32.594 60.6408 34.0501C64.7728 35.5231 67.7304 39.4702 67.7304 44.108C67.7304 50.0036 62.9511 54.7829 57.0555 54.7829C55.4907 54.7829 54.0046 54.4462 52.6655 53.8413C53.0456 54.943 53.2521 56.1269 53.2521 57.3597C53.2521 63.2553 48.5277 68.0346 42.6999 68.0346C39.1518 68.0346 36.0127 66.263 34.0997 63.5466C32.1645 66.263 28.9889 68.0346 25.3995 68.0346C19.5039 68.0346 14.7246 63.2553 14.7246 57.3597C14.7246 56.1834 14.9149 55.0516 15.2663 53.9933C13.8755 54.6569 12.3186 55.0284 10.6749 55.0284C4.77931 55.0284 -2.57714e-07 50.2491 0 44.3535C2.08689e-07 39.5793 3.13414 35.5371 7.45718 34.1721C3.13414 32.8229 -2.00933e-07 28.8271 5.35512e-09 24.1078C2.60101e-07 18.2799 4.77931 13.5556 10.6749 13.5556C12.357 13.5556 13.9482 13.9402 15.3635 14.6253C14.9501 13.4876 14.7246 12.2597 14.7246 10.9791ZM34.3311 17.4821C34.2521 17.3782 34.175 17.2728 34.0997 17.166C34.0236 17.2728 33.9455 17.3782 33.8656 17.4821H34.3311Z"/>
</mask>
<path fill-rule="evenodd" clip-rule="evenodd" d="M14.7246 10.9791C14.7246 5.08351 19.5039 0.304199 25.3995 0.304199C28.9889 0.3042 32.1645 2.07576 34.0997 4.79221C36.0127 2.07576 39.1518 0.304199 42.6999 0.304199C48.5277 0.3042 53.2521 5.08351 53.2521 10.9791C53.2521 12.207 53.0472 13.3865 52.67 14.4844C54.0079 13.8877 55.4925 13.5557 57.0555 13.5557C62.9511 13.5557 67.7304 18.28 67.7304 24.1078C67.7304 28.6924 64.7728 32.594 60.6408 34.0501C64.7728 35.5231 67.7304 39.4702 67.7304 44.108C67.7304 50.0036 62.9511 54.7829 57.0555 54.7829C55.4907 54.7829 54.0046 54.4462 52.6655 53.8413C53.0456 54.943 53.2521 56.1269 53.2521 57.3597C53.2521 63.2553 48.5277 68.0346 42.6999 68.0346C39.1518 68.0346 36.0127 66.263 34.0997 63.5466C32.1645 66.263 28.9889 68.0346 25.3995 68.0346C19.5039 68.0346 14.7246 63.2553 14.7246 57.3597C14.7246 56.1834 14.9149 55.0516 15.2663 53.9933C13.8755 54.6569 12.3186 55.0284 10.6749 55.0284C4.77931 55.0284 -2.57714e-07 50.2491 0 44.3535C2.08689e-07 39.5793 3.13414 35.5371 7.45718 34.1721C3.13414 32.8229 -2.00933e-07 28.8271 5.35512e-09 24.1078C2.60101e-07 18.2799 4.77931 13.5556 10.6749 13.5556C12.357 13.5556 13.9482 13.9402 15.3635 14.6253C14.9501 13.4876 14.7246 12.2597 14.7246 10.9791ZM34.3311 17.4821C34.2521 17.3782 34.175 17.2728 34.0997 17.166C34.0236 17.2728 33.9455 17.3782 33.8656 17.4821H34.3311Z" fill="#FCFDF7"/>
<path d="M25.3995 0.304199V-0.195801V0.304199ZM14.7246 10.9791H14.2246H14.7246ZM34.0997 4.79221L33.6925 5.08232L34.1021 5.65727L34.5085 5.0801L34.0997 4.79221ZM42.6999 0.304199V-0.195801V0.304199ZM52.67 14.4844L52.1971 14.322L51.8236 15.4094L52.8737 14.9411L52.67 14.4844ZM60.6408 34.0501L60.4746 33.5786L59.1441 34.0474L60.4729 34.5211L60.6408 34.0501ZM52.6655 53.8413L52.8714 53.3857L51.8148 52.9084L52.1929 54.0044L52.6655 53.8413ZM34.0997 63.5466L34.5085 63.2587L34.1021 62.6815L33.6925 63.2565L34.0997 63.5466ZM14.7246 57.3597H15.2246H14.7246ZM15.2663 53.9933L15.7408 54.1509L16.1109 53.0363L15.051 53.542L15.2663 53.9933ZM0 44.3535H0.5H0ZM7.45718 34.1721L7.60773 34.6489L9.12656 34.1694L7.60615 33.6948L7.45718 34.1721ZM5.35512e-09 24.1078H-0.5H5.35512e-09ZM10.6749 13.5556V14.0556V13.5556ZM15.3635 14.6253L15.1457 15.0753L16.254 15.6118L15.8335 14.4545L15.3635 14.6253ZM34.3311 17.4821V17.9821H35.3395L34.7291 17.1794L34.3311 17.4821ZM34.0997 17.166L34.5085 16.8781L34.1021 16.3009L33.6925 16.8758L34.0997 17.166ZM33.8656 17.4821L33.4693 17.1772L32.8502 17.9821H33.8656V17.4821ZM25.3995 -0.195801C19.2278 -0.195801 14.2246 4.80736 14.2246 10.9791H15.2246C15.2246 5.35965 19.7801 0.804199 25.3995 0.804199V-0.195801ZM34.5069 4.5021C32.482 1.65961 29.1574 -0.1958 25.3995 -0.195801V0.804199C28.8204 0.8042 31.8471 2.4919 33.6925 5.08232L34.5069 4.5021ZM42.6999 -0.195801C38.9808 -0.195801 35.6926 1.66186 33.6909 4.50433L34.5085 5.0801C36.3327 2.48966 39.3228 0.804199 42.6999 0.804199V-0.195801ZM53.7521 10.9791C53.7521 4.81283 48.8093 -0.1958 42.6999 -0.195801V0.804199C48.2462 0.8042 52.7521 5.35419 52.7521 10.9791H53.7521ZM53.1429 14.6468C53.5378 13.4973 53.7521 12.2629 53.7521 10.9791H52.7521C52.7521 12.151 52.5566 13.2756 52.1971 14.322L53.1429 14.6468ZM57.0555 13.0557C55.4211 13.0557 53.8672 13.403 52.4664 14.0278L52.8737 14.9411C54.1486 14.3725 55.5639 14.0557 57.0555 14.0557V13.0557ZM68.2304 24.1078C68.2304 17.9985 63.2218 13.0557 57.0555 13.0557V14.0557C62.6804 14.0557 67.2304 18.5616 67.2304 24.1078H68.2304ZM60.8069 34.5217C65.1298 32.9984 68.2304 28.914 68.2304 24.1078H67.2304C67.2304 28.4707 64.4157 32.1897 60.4746 33.5786L60.8069 34.5217ZM68.2304 44.108C68.2304 39.2522 65.1335 35.1209 60.8087 33.5792L60.4729 34.5211C64.412 35.9254 67.2304 39.6882 67.2304 44.108H68.2304ZM57.0555 55.2829C63.2272 55.2829 68.2304 50.2797 68.2304 44.108H67.2304C67.2304 49.7275 62.6749 54.2829 57.0555 54.2829V55.2829ZM52.4597 54.297C53.8621 54.9305 55.4183 55.2829 57.0555 55.2829V54.2829C55.5631 54.2829 54.147 53.9619 52.8714 53.3857L52.4597 54.297ZM53.7521 57.3597C53.7521 56.0708 53.5361 54.8318 53.1382 53.6783L52.1929 54.0044C52.555 55.0542 52.7521 56.1831 52.7521 57.3597H53.7521ZM42.6999 68.5346C48.8093 68.5346 53.7521 63.526 53.7521 57.3597H52.7521C52.7521 62.9846 48.2462 67.5346 42.6999 67.5346V68.5346ZM33.6909 63.8345C35.6926 66.6769 38.9808 68.5346 42.6999 68.5346V67.5346C39.3228 67.5346 36.3327 65.8491 34.5085 63.2587L33.6909 63.8345ZM25.3995 68.5346C29.1574 68.5346 32.482 66.6792 34.5069 63.8367L33.6925 63.2565C31.8471 65.8469 28.8204 67.5346 25.3995 67.5346V68.5346ZM14.2246 57.3597C14.2246 63.5314 19.2278 68.5346 25.3995 68.5346V67.5346C19.7801 67.5346 15.2246 62.9791 15.2246 57.3597H14.2246ZM14.7917 53.8357C14.4237 54.9442 14.2246 56.1292 14.2246 57.3597H15.2246C15.2246 56.2376 15.406 55.159 15.7408 54.1509L14.7917 53.8357ZM10.6749 55.5284C12.3947 55.5284 14.025 55.1396 15.4816 54.4446L15.051 53.542C13.726 54.1742 12.2425 54.5284 10.6749 54.5284V55.5284ZM-0.5 44.3535C-0.5 50.5252 4.50317 55.5284 10.6749 55.5284V54.5284C5.05545 54.5284 0.5 49.9729 0.5 44.3535H-0.5ZM7.30664 33.6953C2.78157 35.1241 -0.5 39.3549 -0.5 44.3535H0.5C0.5 39.8037 3.48671 35.9501 7.60773 34.6489L7.30664 33.6953ZM-0.5 24.1078C-0.5 29.0553 2.78548 33.2378 7.30822 34.6494L7.60615 33.6948C3.4828 32.4079 0.5 28.5989 0.5 24.1078L-0.5 24.1078ZM10.6749 13.0556C4.50863 13.0556 -0.5 17.9984 -0.5 24.1078L0.5 24.1078C0.5 18.5615 5.04999 14.0556 10.6749 14.0556L10.6749 13.0556ZM15.5814 14.1752C14.0995 13.4579 12.4339 13.0556 10.6749 13.0556V14.0556C12.2801 14.0556 13.797 14.4224 15.1457 15.0753L15.5814 14.1752ZM14.2246 10.9791C14.2246 12.3187 14.4606 13.6044 14.8936 14.796L15.8335 14.4545C15.4396 13.3707 15.2246 12.2006 15.2246 10.9791H14.2246ZM34.7291 17.1794C34.6538 17.0804 34.5803 16.9799 34.5085 16.8781L33.6909 17.4538C33.7697 17.5657 33.8504 17.676 33.9331 17.7847L34.7291 17.1794ZM33.6925 16.8758C33.6199 16.9777 33.5455 17.0782 33.4693 17.1772L34.2619 17.787C34.3456 17.6782 34.4273 17.5679 34.5069 17.4561L33.6925 16.8758ZM33.8656 17.9821H34.3311V16.9821H33.8656V17.9821Z" fill="black" mask="url(#path-1-inside-1_65_138)"/>
<ellipse cx="34.0226" cy="16.9202" rx="3.95621" ry="3.63971" fill="#FCFDF7"/>
</svg>
