<svg width="70" height="68" viewBox="0 0 70 68" fill="none" xmlns="http://www.w3.org/2000/svg">
<mask id="path-1-inside-1_65_104" fill="white">
<path fill-rule="evenodd" clip-rule="evenodd" d="M35.2596 38.0783C35.1305 38.0809 35.0011 38.0822 34.8714 38.0822C34.7424 38.0822 34.6136 38.0809 34.4852 38.0783C34.6178 38.2719 34.7469 38.4682 34.8724 38.6669C34.9979 38.4682 35.127 38.2719 35.2596 38.0783ZM50.4676 29.8525C52.5451 26.8186 53.7604 23.1478 53.7604 19.1932C53.7604 8.76109 45.3035 0.304199 34.8714 0.304199C24.4393 0.304199 15.9824 8.76109 15.9824 19.1932C15.9824 23.1478 17.1977 26.8186 19.2752 29.8524C19.1468 29.8498 19.018 29.8486 18.889 29.8486C8.45689 29.8486 0 38.3054 0 48.7375C0 59.1696 8.45689 67.6265 18.889 67.6265C25.6189 67.6265 31.5267 64.107 34.8724 58.8082C38.218 64.107 44.1259 67.6265 50.8558 67.6265C61.2879 67.6265 69.7448 59.1696 69.7448 48.7375C69.7448 38.3054 61.2879 29.8486 50.8558 29.8486C50.7261 29.8486 50.5967 29.8499 50.4676 29.8525Z"/>
</mask>
<path fill-rule="evenodd" clip-rule="evenodd" d="M35.2596 38.0783C35.1305 38.0809 35.0011 38.0822 34.8714 38.0822C34.7424 38.0822 34.6136 38.0809 34.4852 38.0783C34.6178 38.2719 34.7469 38.4682 34.8724 38.6669C34.9979 38.4682 35.127 38.2719 35.2596 38.0783ZM50.4676 29.8525C52.5451 26.8186 53.7604 23.1478 53.7604 19.1932C53.7604 8.76109 45.3035 0.304199 34.8714 0.304199C24.4393 0.304199 15.9824 8.76109 15.9824 19.1932C15.9824 23.1478 17.1977 26.8186 19.2752 29.8524C19.1468 29.8498 19.018 29.8486 18.889 29.8486C8.45689 29.8486 0 38.3054 0 48.7375C0 59.1696 8.45689 67.6265 18.889 67.6265C25.6189 67.6265 31.5267 64.107 34.8724 58.8082C38.218 64.107 44.1259 67.6265 50.8558 67.6265C61.2879 67.6265 69.7448 59.1696 69.7448 48.7375C69.7448 38.3054 61.2879 29.8486 50.8558 29.8486C50.7261 29.8486 50.5967 29.8499 50.4676 29.8525Z" fill="#FCFDF7"/>
<path d="M35.2596 38.0783L35.6721 38.3608L36.2213 37.5588L35.2495 37.5784L35.2596 38.0783ZM34.4852 38.0783L34.4952 37.5784L33.5236 37.5589L34.0727 38.3608L34.4852 38.0783ZM34.8724 38.6669L34.4496 38.9338L34.8724 39.6035L35.2952 38.9339L34.8724 38.6669ZM50.4676 29.8525L50.0551 29.57L49.5059 30.3719L50.4777 30.3524L50.4676 29.8525ZM19.2752 29.8524L19.2652 30.3523L20.2368 30.3718L19.6877 29.5699L19.2752 29.8524ZM34.8724 58.8082L35.2952 58.5412L34.8724 57.8716L34.4496 58.5412L34.8724 58.8082ZM34.8714 38.5822C35.0045 38.5822 35.1372 38.5808 35.2697 38.5782L35.2495 37.5784C35.1238 37.5809 34.9977 37.5822 34.8714 37.5822V38.5822ZM34.4752 38.5782C34.607 38.5808 34.739 38.5822 34.8714 38.5822V37.5822C34.7457 37.5822 34.6203 37.5809 34.4952 37.5784L34.4752 38.5782ZM35.2952 38.4C35.1664 38.196 35.0339 37.9946 34.8978 37.7958L34.0727 38.3608C34.2018 38.5493 34.3274 38.7404 34.4496 38.9338L35.2952 38.4ZM35.2952 38.9339C35.4173 38.7404 35.543 38.5493 35.6721 38.3608L34.847 37.7958C34.7109 37.9945 34.5784 38.196 34.4496 38.4L35.2952 38.9339ZM50.8802 30.135C53.0128 27.0206 54.2604 23.2518 54.2604 19.1932H53.2604C53.2604 23.0438 52.0774 26.6167 50.0551 29.57L50.8802 30.135ZM54.2604 19.1932C54.2604 8.48494 45.5796 -0.195801 34.8714 -0.195801V0.804199C45.0274 0.804199 53.2604 9.03723 53.2604 19.1932H54.2604ZM34.8714 -0.195801C24.1632 -0.195801 15.4824 8.48494 15.4824 19.1932H16.4824C16.4824 9.03723 24.7155 0.804199 34.8714 0.804199V-0.195801ZM15.4824 19.1932C15.4824 23.2518 16.73 27.0205 18.8626 30.1349L19.6877 29.5699C17.6654 26.6166 16.4824 23.0438 16.4824 19.1932H15.4824ZM19.2852 29.3525C19.1534 29.3499 19.0214 29.3486 18.889 29.3486V30.3486C19.0147 30.3486 19.1401 30.3498 19.2652 30.3523L19.2852 29.3525ZM18.889 29.3486C8.18074 29.3486 -0.5 38.0293 -0.5 48.7375H0.5C0.5 38.5816 8.73303 30.3486 18.889 30.3486V29.3486ZM-0.5 48.7375C-0.5 59.4458 8.18074 68.1265 18.889 68.1265V67.1265C8.73303 67.1265 0.5 58.8935 0.5 48.7375H-0.5ZM18.889 68.1265C25.7976 68.1265 31.8618 64.5129 35.2952 59.0751L34.4496 58.5412C31.1917 63.7011 25.4402 67.1265 18.889 67.1265V68.1265ZM50.8558 67.1265C44.3046 67.1265 38.5531 63.7011 35.2952 58.5412L34.4496 59.0751C37.883 64.5129 43.9472 68.1265 50.8558 68.1265V67.1265ZM69.2448 48.7375C69.2448 58.8935 61.0117 67.1265 50.8558 67.1265V68.1265C61.564 68.1265 70.2448 59.4458 70.2448 48.7375H69.2448ZM50.8558 30.3486C61.0117 30.3486 69.2448 38.5816 69.2448 48.7375H70.2448C70.2448 38.0293 61.564 29.3486 50.8558 29.3486V30.3486ZM50.4777 30.3524C50.6034 30.3498 50.7294 30.3486 50.8558 30.3486V29.3486C50.7227 29.3486 50.59 29.3499 50.4575 29.3526L50.4777 30.3524Z" fill="black" mask="url(#path-1-inside-1_65_104)"/>
</svg>
