<svg width="58" height="58" viewBox="0 0 58 58" fill="none" xmlns="http://www.w3.org/2000/svg">
<mask id="path-1-inside-1_65_114" fill="white">
<path fill-rule="evenodd" clip-rule="evenodd" d="M6.90326 29.0506C-0.169257 18.1723 -2.20715 7.73862 2.66564 2.86583C7.53349 -2.00202 17.9509 0.0268136 28.8173 7.08197C39.656 0.0671176 50.0361 -1.94057 54.8927 2.91604C59.7584 7.78169 57.7341 18.1914 50.6875 29.052C57.5954 39.8164 59.5476 50.0962 54.7218 54.922C49.8911 59.7527 39.5951 57.7916 28.8188 50.8665C18.0138 57.8326 7.67922 59.8149 2.83654 54.9722C-1.99708 50.1386 -0.031214 39.8336 6.90326 29.0506Z"/>
</mask>
<path fill-rule="evenodd" clip-rule="evenodd" d="M6.90326 29.0506C-0.169257 18.1723 -2.20715 7.73862 2.66564 2.86583C7.53349 -2.00202 17.9509 0.0268136 28.8173 7.08197C39.656 0.0671176 50.0361 -1.94057 54.8927 2.91604C59.7584 7.78169 57.7341 18.1914 50.6875 29.052C57.5954 39.8164 59.5476 50.0962 54.7218 54.922C49.8911 59.7527 39.5951 57.7916 28.8188 50.8665C18.0138 57.8326 7.67922 59.8149 2.83654 54.9722C-1.99708 50.1386 -0.031214 39.8336 6.90326 29.0506Z" fill="#FCFDF7"/>
<path d="M6.90326 29.0506L7.32381 29.321L7.49868 29.0491L7.32246 28.778L6.90326 29.0506ZM2.66564 2.86583L3.01919 3.21938L2.66564 2.86583ZM28.8173 7.08197L28.545 7.50133L28.8169 7.67783L29.089 7.50172L28.8173 7.08197ZM54.8927 2.91604L55.2463 2.56248V2.56248L54.8927 2.91604ZM50.6875 29.052L50.2681 28.7799L50.0925 29.0506L50.2667 29.3221L50.6875 29.052ZM54.7218 54.922L55.0754 55.2756L54.7218 54.922ZM28.8188 50.8665L29.0891 50.4458L28.8183 50.2718L28.5478 50.4462L28.8188 50.8665ZM2.83654 54.9722L2.48299 55.3258L2.83654 54.9722ZM7.32246 28.778C3.81029 23.376 1.56729 18.1119 0.797773 13.6217C0.0266305 9.12197 0.746067 5.49251 3.01919 3.21938L2.31208 2.51228C-0.287585 5.11195 -0.985595 9.1357 -0.187857 13.7906C0.611511 18.455 2.92372 23.8469 6.48407 29.3231L7.32246 28.778ZM3.01919 3.21938C5.29001 0.948566 8.9144 0.228281 13.4079 0.995637C17.8919 1.76138 23.1489 3.99781 28.545 7.50133L29.0896 6.6626C23.6193 3.11097 18.2345 0.805405 13.5762 0.00990748C8.92738 -0.783978 4.90911 -0.0847539 2.31208 2.51228L3.01919 3.21938ZM29.089 7.50172C34.4713 4.01829 39.712 1.79713 44.1818 1.04019C48.6609 0.281673 52.2736 1.004 54.5392 3.26959L55.2463 2.56248C52.6553 -0.0285327 48.6496 -0.730663 44.0148 0.0542261C39.3707 0.840685 34.0021 3.1308 28.5456 6.66221L29.089 7.50172ZM54.5392 3.26959C56.809 5.5394 57.5298 9.16141 56.7643 13.6519C56.0005 18.133 53.7673 23.3867 50.2681 28.7799L51.107 29.3242C54.6543 23.8568 56.9566 18.4753 57.7501 13.8199C58.542 9.17401 57.8421 5.15833 55.2463 2.56248L54.5392 3.26959ZM50.2667 29.3221C53.6969 34.6672 55.8776 39.8642 56.6115 44.2957C57.3468 48.736 56.6194 52.3173 54.3683 54.5684L55.0754 55.2756C57.6499 52.701 58.3593 48.7294 57.5981 44.1323C56.8353 39.5264 54.586 34.2013 51.1083 28.782L50.2667 29.3221ZM54.3683 54.5684C52.1148 56.8219 48.5285 57.5485 44.0819 56.8094C39.6442 56.0718 34.4402 53.8846 29.0891 50.4458L28.5485 51.2871C33.9737 54.7735 39.3059 57.0293 43.9179 57.7959C48.5211 58.561 52.4981 57.8528 55.0754 55.2756L54.3683 54.5684ZM28.5478 50.4462C23.1824 53.9054 17.9616 56.1081 13.5091 56.8545C9.04763 57.6024 5.44919 56.8777 3.1901 54.6187L2.48299 55.3258C5.06658 57.9093 9.05676 58.6149 13.6745 57.8408C18.3012 57.0651 23.6501 54.7937 29.0897 51.2867L28.5478 50.4462ZM3.1901 54.6187C0.935225 52.3638 0.209029 48.7746 0.950073 44.3245C1.68963 39.8834 3.88041 34.6755 7.32381 29.321L6.48272 28.7801C2.99164 34.2087 0.732248 39.5448 -0.0363441 44.1603C-0.803447 48.7669 -0.0957641 52.747 2.48299 55.3258L3.1901 54.6187Z" fill="black" mask="url(#path-1-inside-1_65_114)"/>
</svg>
