<svg width="71" height="72" viewBox="0 0 71 72" fill="none" xmlns="http://www.w3.org/2000/svg">
<mask id="path-1-inside-1_65_109" fill="white">
<path fill-rule="evenodd" clip-rule="evenodd" d="M35.4974 32.0892C36.8898 32.0892 38.2405 31.9104 39.5277 31.5744C39.2933 32.661 39.1699 33.7888 39.1699 34.9455C39.1699 36.7438 39.4682 38.4725 40.0181 40.0847C38.5851 39.6608 37.0678 39.4333 35.4974 39.4333C33.9271 39.4333 32.4099 39.6608 30.9769 40.0846C31.5268 38.4724 31.8251 36.7438 31.8251 34.9455C31.8251 33.7888 31.7017 32.661 31.4673 31.5745C32.7544 31.9104 34.105 32.0892 35.4974 32.0892ZM19.9426 19.5477C19.7083 18.4612 19.5848 17.3334 19.5848 16.1767C19.5848 7.38845 26.7091 0.26416 35.4974 0.26416C44.2856 0.26416 51.4099 7.38845 51.4099 16.1767C51.4099 17.3334 51.2865 18.4612 51.0521 19.5478C52.3393 19.2118 53.69 19.033 55.0825 19.033C63.8707 19.033 70.995 26.1572 70.995 34.9455C70.995 43.7337 63.8707 50.858 55.0825 50.858C53.512 50.858 51.9948 50.6305 50.5618 50.2067C51.1116 51.8189 51.4099 53.5476 51.4099 55.3459C51.4099 64.1341 44.2856 71.2584 35.4974 71.2584C26.7091 71.2584 19.5848 64.1341 19.5848 55.3459C19.5848 53.5476 19.8831 51.819 20.433 50.2068C19.0001 50.6306 17.4829 50.858 15.9125 50.858C7.12428 50.858 0 43.7337 0 34.9455C0 26.1572 7.12429 19.033 15.9125 19.033C17.3049 19.033 18.6555 19.2118 19.9426 19.5477Z"/>
</mask>
<path fill-rule="evenodd" clip-rule="evenodd" d="M35.4974 32.0892C36.8898 32.0892 38.2405 31.9104 39.5277 31.5744C39.2933 32.661 39.1699 33.7888 39.1699 34.9455C39.1699 36.7438 39.4682 38.4725 40.0181 40.0847C38.5851 39.6608 37.0678 39.4333 35.4974 39.4333C33.9271 39.4333 32.4099 39.6608 30.9769 40.0846C31.5268 38.4724 31.8251 36.7438 31.8251 34.9455C31.8251 33.7888 31.7017 32.661 31.4673 31.5745C32.7544 31.9104 34.105 32.0892 35.4974 32.0892ZM19.9426 19.5477C19.7083 18.4612 19.5848 17.3334 19.5848 16.1767C19.5848 7.38845 26.7091 0.26416 35.4974 0.26416C44.2856 0.26416 51.4099 7.38845 51.4099 16.1767C51.4099 17.3334 51.2865 18.4612 51.0521 19.5478C52.3393 19.2118 53.69 19.033 55.0825 19.033C63.8707 19.033 70.995 26.1572 70.995 34.9455C70.995 43.7337 63.8707 50.858 55.0825 50.858C53.512 50.858 51.9948 50.6305 50.5618 50.2067C51.1116 51.8189 51.4099 53.5476 51.4099 55.3459C51.4099 64.1341 44.2856 71.2584 35.4974 71.2584C26.7091 71.2584 19.5848 64.1341 19.5848 55.3459C19.5848 53.5476 19.8831 51.819 20.433 50.2068C19.0001 50.6306 17.4829 50.858 15.9125 50.858C7.12428 50.858 0 43.7337 0 34.9455C0 26.1572 7.12429 19.033 15.9125 19.033C17.3049 19.033 18.6555 19.2118 19.9426 19.5477Z" fill="#FCFDF7"/>
<path d="M39.5277 31.5744L40.0165 31.6798L40.1878 30.8853L39.4014 31.0906L39.5277 31.5744ZM40.0181 40.0847L39.8763 40.5641L40.8034 40.8384L40.4913 39.9233L40.0181 40.0847ZM30.9769 40.0846L30.5037 39.9232L30.1916 40.8383L31.1187 40.5641L30.9769 40.0846ZM31.4673 31.5745L31.5936 31.0907L30.8072 30.8854L30.9785 31.6799L31.4673 31.5745ZM19.9426 19.5477L19.8163 20.0315L20.6027 20.2368L20.4314 19.4423L19.9426 19.5477ZM51.0521 19.5478L50.5634 19.4424L50.392 20.2369L51.1784 20.0316L51.0521 19.5478ZM50.5618 50.2067L50.7036 49.7272L49.7764 49.453L50.0885 50.3681L50.5618 50.2067ZM20.433 50.2068L20.9062 50.3682L21.2183 49.4531L20.2912 49.7273L20.433 50.2068ZM15.9125 19.033V19.533V19.033ZM39.4014 31.0906C38.1551 31.4159 36.8469 31.5892 35.4974 31.5892V32.5892C36.9328 32.5892 38.3259 32.4048 39.654 32.0582L39.4014 31.0906ZM39.6699 34.9455C39.6699 33.8245 39.7895 32.732 40.0165 31.6798L39.039 31.469C38.7972 32.59 38.6699 33.7532 38.6699 34.9455H39.6699ZM40.4913 39.9233C39.959 38.3624 39.6699 36.6882 39.6699 34.9455H38.6699C38.6699 36.7994 38.9775 38.5826 39.5448 40.2461L40.4913 39.9233ZM35.4974 39.9333C37.0193 39.9333 38.4888 40.1538 39.8763 40.5641L40.1599 39.6052C38.6813 39.1679 37.1163 38.9333 35.4974 38.9333V39.9333ZM31.1187 40.5641C32.5061 40.1538 33.9756 39.9333 35.4974 39.9333V38.9333C33.8785 38.9333 32.3136 39.1679 30.8351 39.6051L31.1187 40.5641ZM31.3251 34.9455C31.3251 36.6882 31.036 38.3623 30.5037 39.9232L31.4502 40.246C32.0175 38.5825 32.3251 36.7994 32.3251 34.9455H31.3251ZM30.9785 31.6799C31.2055 32.732 31.3251 33.8245 31.3251 34.9455H32.3251C32.3251 33.7532 32.1979 32.59 31.9561 31.469L30.9785 31.6799ZM35.4974 31.5892C34.148 31.5892 32.8398 31.4159 31.5936 31.0907L31.341 32.0583C32.669 32.4049 34.062 32.5892 35.4974 32.5892V31.5892ZM20.4314 19.4423C20.2044 18.3902 20.0848 17.2977 20.0848 16.1767H19.0848C19.0848 17.369 19.2121 18.5322 19.4539 19.6532L20.4314 19.4423ZM20.0848 16.1767C20.0848 7.66459 26.9853 0.76416 35.4974 0.76416V-0.23584C26.433 -0.23584 19.0848 7.1123 19.0848 16.1767H20.0848ZM35.4974 0.76416C44.0095 0.76416 50.9099 7.66459 50.9099 16.1767H51.9099C51.9099 7.1123 44.5618 -0.23584 35.4974 -0.23584V0.76416ZM50.9099 16.1767C50.9099 17.2977 50.7903 18.3902 50.5634 19.4424L51.5409 19.6532C51.7827 18.5322 51.9099 17.369 51.9099 16.1767H50.9099ZM51.1784 20.0316C52.4247 19.7063 53.733 19.533 55.0825 19.533V18.533C53.647 18.533 52.2539 18.7174 50.9258 19.064L51.1784 20.0316ZM55.0825 19.533C63.5946 19.533 70.495 26.4334 70.495 34.9455H71.495C71.495 25.8811 64.1469 18.533 55.0825 18.533V19.533ZM70.495 34.9455C70.495 43.4576 63.5946 50.358 55.0825 50.358V51.358C64.1469 51.358 71.495 44.0099 71.495 34.9455H70.495ZM55.0825 50.358C53.5606 50.358 52.091 50.1376 50.7036 49.7272L50.42 50.6862C51.8985 51.1235 53.4635 51.358 55.0825 51.358V50.358ZM50.0885 50.3681C50.6209 51.929 50.9099 53.6032 50.9099 55.3459H51.9099C51.9099 53.4919 51.6023 51.7088 51.035 50.0453L50.0885 50.3681ZM50.9099 55.3459C50.9099 63.858 44.0095 70.7584 35.4974 70.7584V71.7584C44.5618 71.7584 51.9099 64.4103 51.9099 55.3459H50.9099ZM35.4974 70.7584C26.9853 70.7584 20.0848 63.858 20.0848 55.3459H19.0848C19.0848 64.4103 26.433 71.7584 35.4974 71.7584V70.7584ZM20.0848 55.3459C20.0848 53.6032 20.3739 51.9291 20.9062 50.3682L19.9597 50.0454C19.3924 51.7088 19.0848 53.492 19.0848 55.3459H20.0848ZM20.2912 49.7273C18.9038 50.1376 17.4343 50.358 15.9125 50.358V51.358C17.5314 51.358 19.0963 51.1235 20.5748 50.6863L20.2912 49.7273ZM15.9125 50.358C7.40043 50.358 0.5 43.4576 0.5 34.9455H-0.5C-0.5 44.0099 6.84814 51.358 15.9125 51.358V50.358ZM0.5 34.9455C0.5 26.4334 7.40043 19.533 15.9125 19.533V18.533C6.84814 18.533 -0.5 25.8811 -0.5 34.9455H0.5ZM15.9125 19.533C17.2619 19.533 18.5701 19.7063 19.8163 20.0315L20.0689 19.0639C18.7409 18.7173 17.3479 18.533 15.9125 18.533V19.533Z" fill="black" mask="url(#path-1-inside-1_65_109)"/>
</svg>
