<svg width="312" height="312" viewBox="0 0 312 312" fill="none" xmlns="http://www.w3.org/2000/svg">
<path d="M244.581 310.99L232.121 310.99C232.335 267.703 267.268 232.628 310.5 232.184L310.5 244.645C274.153 245.088 244.795 274.589 244.581 310.99Z" fill="#EDC666" stroke="black" stroke-width="2" stroke-miterlimit="10"/>
<path d="M1.49945 67.2921C37.4177 66.7548 66.4532 37.8476 67.2058 1.98975L79.678 1.98975C78.9225 44.7328 44.2939 79.2139 1.49945 79.7533L1.49945 67.2921Z" fill="#EDC666" stroke="black" stroke-width="2" stroke-miterlimit="10"/>
<path d="M310.5 10.9897L310.5 301.99C310.5 306.96 306.471 310.99 301.5 310.99L10.5 310.99C5.52941 310.99 1.49999 306.96 1.49999 301.99L1.5 10.9897C1.5 6.01917 5.52942 1.98973 10.5 1.98973L301.5 1.98975C306.471 1.98975 310.5 6.01918 310.5 10.9897Z" stroke="black" stroke-width="2"/>
</svg>
