<svg width="312" height="311" viewBox="0 0 312 311" fill="none" xmlns="http://www.w3.org/2000/svg">
<path d="M66.8049 1H79.2657C78.8255 43.8825 44.3096 78.6021 1.5 79.3585V66.8964C37.4244 66.1424 66.3662 36.9968 66.8049 1Z" fill="#EDC666" stroke="black" stroke-width="2" stroke-miterlimit="10"/>
<path d="M310.5 66.9188V79.379C267.213 79.165 232.138 44.2323 231.695 1H244.155C244.598 37.3468 274.099 66.7052 310.5 66.9188Z" fill="#EDC666" stroke="black" stroke-width="2" stroke-miterlimit="10"/>
<path d="M66.8024 310C66.2651 274.082 37.3579 245.046 1.5 244.294V231.822C44.2431 232.577 78.7242 267.206 79.2636 310H66.8024Z" fill="#EDC666" stroke="black" stroke-width="2" stroke-miterlimit="10"/>
<path d="M231.697 310C232.241 266.856 267.28 232.015 310.5 231.801V244.271C274.166 244.484 244.7 273.732 244.158 310H231.697Z" fill="#EDC666" stroke="black" stroke-width="2" stroke-miterlimit="10"/>
<path d="M10.5 1H301.5C306.471 1 310.5 5.02944 310.5 10V301C310.5 305.971 306.471 310 301.5 310H10.5C5.52944 310 1.5 305.971 1.5 301V10C1.5 5.02944 5.52944 1 10.5 1Z" stroke="black" stroke-width="2"/>
</svg>
