<svg width="312" height="312" viewBox="0 0 312 312" fill="none" xmlns="http://www.w3.org/2000/svg">
<path d="M310.5 67.8988V80.359C267.213 80.145 232.138 45.2123 231.695 1.97998H244.155C244.598 38.3268 274.099 67.6852 310.5 67.8988Z" fill="#EDC666" stroke="black" stroke-width="2" stroke-miterlimit="10"/>
<path d="M66.8024 310.98C66.2651 275.062 37.3579 246.026 1.5 245.274V232.802C44.2431 233.557 78.7242 268.186 79.2636 310.98H66.8024Z" fill="#EDC666" stroke="black" stroke-width="2" stroke-miterlimit="10"/>
<path d="M10.5 1.97998H301.5C306.471 1.97998 310.5 6.00942 310.5 10.98V301.98C310.5 306.951 306.471 310.98 301.5 310.98H10.5C5.52944 310.98 1.5 306.951 1.5 301.98V10.98C1.5 6.00942 5.52944 1.97998 10.5 1.97998Z" stroke="black" stroke-width="2"/>
</svg>
