<svg width="83" height="83" viewBox="0 0 83 83" fill="none" xmlns="http://www.w3.org/2000/svg">
<path d="M43.8996 27.5565L46.1743 33.7037C46.5381 34.6868 47.3132 35.4619 48.2963 35.8257L54.4435 38.1004C57.1353 39.0964 57.1353 42.9036 54.4435 43.8996L48.2963 46.1743C47.3132 46.5381 46.5381 47.3132 46.1743 48.2963L43.8996 54.4435C42.9036 57.1353 39.0964 57.1353 38.1004 54.4435L35.8257 48.2963C35.4619 47.3132 34.6868 46.5381 33.7037 46.1743L27.5565 43.8996C24.8647 42.9036 24.8647 39.0964 27.5565 38.1004L33.7037 35.8257C34.6868 35.4619 35.4619 34.6868 35.8257 33.7037L38.1004 27.5565C39.0964 24.8647 42.9036 24.8647 43.8996 27.5565Z" fill="#FCFDF7" stroke="black" stroke-width="0.5"/>
</svg>
