<svg width="312" height="313" viewBox="0 0 312 313" fill="none" xmlns="http://www.w3.org/2000/svg">
<path d="M301.038 1H11.1389C5.63697 1 1.17676 5.47715 1.17676 11V302C1.17676 307.523 5.63697 312 11.1389 312H301.038C306.54 312 311 307.523 311 302V11C311 5.47715 306.54 1 301.038 1Z" stroke="#FCFDF7" stroke-width="1.5"/>
<path d="M161.697 117.298L170.195 140.349C170.942 142.375 172.536 143.974 174.56 144.725L197.599 153.283C203.337 155.414 203.337 163.53 197.599 165.661L174.56 174.219C172.536 174.97 170.942 176.569 170.195 178.595L161.697 201.646C159.575 207.404 151.431 207.404 149.308 201.646L140.81 178.595C140.064 176.569 138.469 174.97 136.445 174.219L113.406 165.661C107.668 163.53 107.669 155.414 113.406 153.283L136.445 144.725C138.469 143.974 140.064 142.375 140.81 140.349L149.308 117.298C151.431 111.54 159.575 111.54 161.697 117.298Z" fill="#FCFDF7" stroke="black" stroke-width="0.795455"/>
</svg>
