<svg width="312" height="311" viewBox="0 0 312 311" fill="none" xmlns="http://www.w3.org/2000/svg">
<path d="M187.862 5.95498C187.099 22.3813 183.211 36.9732 177.428 47.4235C171.622 57.9159 164.055 64 156 64C147.945 64 140.378 57.9159 134.572 47.4235C128.789 36.9732 124.901 22.3813 124.138 5.95498C124.012 3.24476 126.226 1 129 1L183 1C185.774 1 187.988 3.24476 187.862 5.95498Z" fill="#A8D7F5" stroke="black" stroke-width="2"/>
<path d="M124.138 305.045C124.901 288.619 128.789 274.027 134.572 263.577C140.378 253.084 147.945 247 156 247C164.055 247 171.622 253.084 177.428 263.577C183.211 274.027 187.099 288.619 187.862 305.045C187.988 307.755 185.774 310 183 310L129 310C126.226 310 124.012 307.755 124.138 305.045Z" fill="#A8D7F5" stroke="black" stroke-width="2"/>
<path d="M305.545 187.362C289.119 186.599 274.527 182.711 264.077 176.928C253.584 171.122 247.5 163.555 247.5 155.5C247.5 147.445 253.584 139.878 264.077 134.072C274.527 128.289 289.119 124.401 305.545 123.638C308.255 123.512 310.5 125.726 310.5 128.5L310.5 182.5C310.5 185.274 308.255 187.488 305.545 187.362Z" fill="#A8D7F5" stroke="black" stroke-width="2"/>
<path d="M6.45498 123.638C22.8813 124.401 37.4732 128.289 47.9235 134.072C58.4159 139.878 64.5 147.445 64.5 155.5C64.5 163.555 58.4159 171.122 47.9235 176.928C37.4732 182.711 22.8813 186.599 6.45498 187.362C3.74476 187.488 1.5 185.274 1.5 182.5L1.50001 128.5C1.50001 125.726 3.74477 123.512 6.45498 123.638Z" fill="#A8D7F5" stroke="black" stroke-width="2"/>
<rect x="1" y="1" width="309" height="309" rx="9" stroke="black" stroke-width="2"/>
</svg>
