<svg width="311" height="311" viewBox="0 0 311 311" fill="none" xmlns="http://www.w3.org/2000/svg">
<path d="M187.862 5.95498C187.099 22.3813 183.211 36.9732 177.428 47.4235C171.622 57.9159 164.055 64 156 64C147.945 64 140.378 57.9159 134.572 47.4235C128.789 36.9732 124.901 22.3813 124.138 5.95498C124.012 3.24476 126.226 1 129 1L183 1C185.774 1 187.988 3.24476 187.862 5.95498Z" fill="#A8D7F5" stroke="black" stroke-width="2"/>
<path d="M124.138 305.045C124.901 288.619 128.789 274.027 134.572 263.577C140.378 253.084 147.945 247 156 247C164.055 247 171.622 253.084 177.428 263.577C183.211 274.027 187.099 288.619 187.862 305.045C187.988 307.755 185.774 310 183 310L129 310C126.226 310 124.012 307.755 124.138 305.045Z" fill="#A8D7F5" stroke="black" stroke-width="2"/>
<rect x="1" y="1" width="309" height="309" rx="9" stroke="black" stroke-width="2"/>
</svg>
