<svg width="311" height="311" viewBox="0 0 311 311" fill="none" xmlns="http://www.w3.org/2000/svg">
<path d="M305.045 187.362C288.619 186.599 274.027 182.711 263.577 176.928C253.084 171.122 247 163.555 247 155.5C247 147.445 253.084 139.878 263.577 134.072C274.027 128.289 288.619 124.401 305.045 123.638C307.755 123.512 310 125.726 310 128.5L310 182.5C310 185.274 307.755 187.488 305.045 187.362Z" fill="#A8D7F5" stroke="black" stroke-width="2"/>
<path d="M6.45498 123.638C22.8813 124.401 37.4732 128.289 47.9235 134.072C58.4159 139.878 64.5 147.445 64.5 155.5C64.5 163.555 58.4159 171.122 47.9235 176.928C37.4732 182.711 22.8813 186.599 6.45498 187.362C3.74476 187.488 1.5 185.274 1.5 182.5L1.50001 128.5C1.50001 125.726 3.74477 123.512 6.45498 123.638Z" fill="#A8D7F5" stroke="black" stroke-width="2"/>
<rect x="1" y="1" width="309" height="309" rx="9" stroke="black" stroke-width="2"/>
</svg>
