<svg width="311" height="311" viewBox="0 0 311 311" fill="none" xmlns="http://www.w3.org/2000/svg">
<path d="M150.55 3.53553L126.536 27.5502C123.802 30.2839 123.802 34.7161 126.536 37.4497L150.55 61.4645C153.284 64.1981 157.716 64.1981 160.45 61.4645L184.464 37.4497C187.198 34.7161 187.198 30.2839 184.464 27.5503L160.45 3.53554C157.716 0.801867 153.284 0.801863 150.55 3.53553Z" fill="#C10B43" stroke="black" stroke-width="2"/>
<path d="M150.55 249.536L126.536 273.55C123.802 276.284 123.802 280.716 126.536 283.45L150.55 307.464C153.284 310.198 157.716 310.198 160.45 307.464L184.464 283.45C187.198 280.716 187.198 276.284 184.464 273.55L160.45 249.536C157.716 246.802 153.284 246.802 150.55 249.536Z" fill="#C10B43" stroke="black" stroke-width="2"/>
<rect x="1" y="1" width="309" height="309" rx="9" stroke="black" stroke-width="2"/>
</svg>
