<svg width="313" height="313" viewBox="0 0 313 313" fill="none" xmlns="http://www.w3.org/2000/svg">
<path d="M301.038 1H11.1389C5.63697 1 1.17676 5.47715 1.17676 11V302C1.17676 307.523 5.63697 312 11.1389 312H301.038C306.54 312 311 307.523 311 302V11C311 5.47715 306.54 1 301.038 1Z" stroke="#FCFDF7" stroke-width="1.5"/>
<path d="M161.692 133.88L165.759 144.87C166.508 146.895 168.105 148.492 170.13 149.241L181.12 153.308C186.868 155.435 186.868 163.565 181.12 165.692L170.13 169.759C168.105 170.508 166.508 172.105 165.759 174.13L161.692 185.12C159.565 190.868 151.435 190.868 149.308 185.12L145.241 174.13C144.492 172.105 142.895 170.508 140.87 169.759L129.88 165.692C124.132 163.565 124.132 155.435 129.88 153.308L140.87 149.241C142.895 148.492 144.492 146.895 145.241 144.87L149.308 133.88C151.435 128.132 159.565 128.132 161.692 133.88Z" fill="#FCFDF7" stroke="black" stroke-width="0.795455"/>
</svg>
