<svg width="186" height="85" viewBox="0 0 186 85" fill="none" xmlns="http://www.w3.org/2000/svg">
<rect x="-0.25" y="0.25" width="61.5" height="61.5" rx="9.75" transform="matrix(-1 0 0 1 185.5 0)" fill="#FCFDF7" stroke="black" stroke-width="0.5"/>
<rect x="-0.125" y="0.125" width="33.75" height="33.75" rx="4.875" transform="matrix(-1 0 0 1 34.75 14)" fill="#FCFDF7" stroke="black" stroke-width="0.25"/>
<rect x="-0.125" y="0.125" width="42.75" height="42.75" rx="4.875" transform="matrix(-1 0 0 1 100.75 9)" fill="#FCFDF7" stroke="black" stroke-width="0.25"/>
<path d="M182.854 80.8536C183.049 80.6583 183.049 80.3417 182.854 80.1464L179.672 76.9645C179.476 76.7692 179.16 76.7692 178.964 76.9645C178.769 77.1597 178.769 77.4763 178.964 77.6716L181.793 80.5L178.964 83.3284C178.769 83.5237 178.769 83.8403 178.964 84.0355C179.16 84.2308 179.476 84.2308 179.672 84.0355L182.854 80.8536ZM1 81H182.5V80H1V81Z" fill="black"/>
<path d="M1 78.5V83" stroke="black"/>
</svg>
