<svg width="312" height="312" viewBox="0 0 312 312" fill="none" xmlns="http://www.w3.org/2000/svg">
<path d="M266.41 55.76H310.41V67.76H251.41C246.853 67.76 243.16 64.0584 243.16 59.51V1.51001H256.16V45.51C256.16 47.2386 256.593 48.868 257.346 50.2963L257.347 50.2986C258.308 52.1113 259.791 53.6078 261.612 54.5637C263.043 55.3284 264.673 55.76 266.41 55.76Z" fill="#CCD65B" stroke="black" stroke-width="2"/>
<path d="M54.0634 50.2986L54.0646 50.2963C54.8175 48.868 55.25 47.2386 55.25 45.51V1.51001H68.25V59.51C68.25 64.0584 64.557 67.76 60 67.76H1V55.76H45C46.7367 55.76 48.3671 55.3284 49.7981 54.5637C51.619 53.6078 53.1018 52.1113 54.0634 50.2986Z" fill="#CCD65B" stroke="black" stroke-width="2"/>
<path d="M257.347 261.581L257.346 261.584C256.593 263.012 256.16 264.641 256.16 266.37V310.37H243.16V252.37C243.16 247.822 246.853 244.12 251.41 244.12H310.41V256.12H266.41C264.674 256.12 263.043 256.552 261.612 257.316C259.791 258.272 258.308 259.769 257.347 261.581Z" fill="#CCD65B" stroke="black" stroke-width="2"/>
<path d="M45 256.12H1V244.12H60C64.557 244.12 68.25 247.822 68.25 252.37V310.37H55.25V266.37C55.25 264.641 54.8175 263.012 54.0646 261.584L54.0634 261.581C53.1018 259.769 51.619 258.272 49.7981 257.316C48.3671 256.552 46.7367 256.12 45 256.12Z" fill="#CCD65B" stroke="black" stroke-width="2"/>
<path d="M311 10.51V301.51C311 306.478 306.968 310.51 302 310.51H11C6.03229 310.51 2 306.478 2 301.51V10.51C2 5.53295 6.03163 1.51001 11 1.51001H302C306.968 1.51001 311 5.53295 311 10.51Z" stroke="black" stroke-width="2"/>
</svg>
