<svg width="311" height="312" viewBox="0 0 311 312" fill="none" xmlns="http://www.w3.org/2000/svg">
<path d="M265.41 55.74H309.41V67.74H250.41C245.853 67.74 242.16 64.0384 242.16 59.49V1.48999H255.16V45.49C255.16 47.2185 255.593 48.848 256.346 50.2763L256.347 50.2786C257.308 52.0913 258.791 53.5878 260.612 54.5437C262.043 55.3084 263.673 55.74 265.41 55.74Z" fill="#CCD65B" stroke="black" stroke-width="2"/>
<path d="M45 256.1H1V244.1H60C64.557 244.1 68.25 247.802 68.25 252.35V310.35H55.25V266.35C55.25 264.622 54.8175 262.992 54.0646 261.564L54.0634 261.561C53.1018 259.749 51.619 258.252 49.7981 257.296C48.3671 256.532 46.7367 256.1 45 256.1Z" fill="#CCD65B" stroke="black" stroke-width="2"/>
<path d="M310 10.49V301.49C310 306.458 305.968 310.49 301 310.49H10C5.03229 310.49 1 306.458 1 301.49V10.49C1 5.51293 5.03163 1.48999 10 1.48999H301C305.968 1.48999 310 5.51293 310 10.49Z" stroke="black" stroke-width="2"/>
</svg>
