<svg width="311" height="311" viewBox="0 0 311 311" fill="none" xmlns="http://www.w3.org/2000/svg">
<path d="M255.75 265.91L255.75 309.91L243.75 309.91L243.75 250.91C243.75 246.353 247.452 242.66 252 242.66L310 242.66L310 255.66L266 255.66C264.271 255.66 262.642 256.093 261.214 256.846L261.211 256.847C259.399 257.808 257.902 259.291 256.946 261.112C256.182 262.543 255.75 264.173 255.75 265.91Z" fill="#CCD65B" stroke="black" stroke-width="2"/>
<path d="M55.3906 45.5L55.3906 1.5L67.3906 1.5L67.3906 60.5C67.3906 65.057 63.689 68.75 59.1406 68.75L1.14064 68.75L1.14064 55.75L45.1406 55.75C46.8692 55.75 48.4986 55.3175 49.9269 54.5646L49.9292 54.5634C51.7419 53.6018 53.2384 52.119 54.1943 50.2981C54.959 48.8671 55.3906 47.2367 55.3906 45.5Z" fill="#CCD65B" stroke="black" stroke-width="2"/>
</svg>
