<svg width="313" height="314" viewBox="0 0 313 314" fill="none" xmlns="http://www.w3.org/2000/svg">
<path d="M302 1.01001H11C5.47715 1.01001 1 5.48716 1 11.01V302.01C1 307.533 5.47715 312.01 11 312.01H302C307.523 312.01 312 307.533 312 302.01V11.01C312 5.48716 307.523 1.01001 302 1.01001Z" stroke="black" stroke-width="2"/>
<path d="M1 83.3L83.28 1.01001H63.88L1 63.89V83.3Z" fill="#EE6051" stroke="black" stroke-width="2"/>
<path d="M311.72 83.3L229.44 1.01001H248.84L311.72 63.89V83.3Z" fill="#EE6051" stroke="black" stroke-width="2"/>
<path d="M1 230.52L83.28 312.81H63.88L1 249.93V230.52Z" fill="#EE6051" stroke="black" stroke-width="2"/>
<path d="M311.72 230.52L229.44 312.81H248.84L311.72 249.93V230.52Z" fill="#EE6051" stroke="black" stroke-width="2"/>
</svg>
